<?xml version="1.0" standalone="no"?>
<!DOCTYPE svg PUBLIC "-//W3C//DTD SVG 1.1//EN" "http://www.w3.org/Graphics/SVG/1.1/DTD/svg11.dtd" >
<svg>
<metadata>
Created by FontForge 20090914 at Thu Jul 18 19:11:01 2013
 By www-data
Copyright (c) 2011, FontFuror (info@fontfuror.com), with Reserved Font Names "Enriqueta" and "Enriqueta Pro".
</metadata>
<defs>
<font id="Enriqueta-Bold" horiz-adv-x="705" >
  <font-face 
    font-family="Enriqueta"
    font-weight="700"
    font-stretch="normal"
    units-per-em="1000"
    panose-1="0 0 0 0 0 0 0 0 0 0"
    ascent="800"
    descent="-200"
    x-height="485"
    cap-height="720"
    bbox="-178 -250.006 1014 950"
    underline-thickness="50"
    underline-position="-50"
    unicode-range="U+0020-U+2074"
  />
<missing-glyph horiz-adv-x="1000" 
 />
    <glyph glyph-name=".notdef" horiz-adv-x="1000" 
 />
    <glyph glyph-name="space" unicode=" " horiz-adv-x="256" 
 />
    <glyph glyph-name="exclam" unicode="!" horiz-adv-x="326" 
d="M113 197l-21 523h139l-22 -523h-96zM241 56c0 -44 -26.335 -66 -79.002 -66c-26 0 -45.333 4.83301 -58 14.5s-19 27 -19 52s5.83301 43.667 17.5 56s32.834 18.5 63.501 18.5s50.834 -6 60.501 -18s14.5 -31 14.5 -57z" />
    <glyph glyph-name="quotedbl" unicode="&#x22;" horiz-adv-x="381" 
d="M153 746l-19 -224h-78l-19 224v6c0 15.333 4.5 26.333 13.5 33s24.5 10 46.5 10c37.333 0 56 -14.333 56 -43v-6zM344 746l-19 -224h-78l-19 224v6c0 15.333 4.83301 26.333 14.5 33s26.5 10 50.5 10c34 0 51 -14.333 51 -43v-6z" />
    <glyph glyph-name="numbersign" unicode="#" horiz-adv-x="592" 
d="M201 5h-104l99 569h104zM28 139v97h511v-97h-511zM56 348v96h511v-96h-511zM404 5h-104l99 569h104z" />
    <glyph glyph-name="dollar" unicode="$" horiz-adv-x="567" 
d="M318 660h-102l-6 138h114zM153 211l-100 -0.000976562l-12 -166c28 -10 49.667 -17 65 -21c47.333 -13.333 98.333 -20 153 -20c86 0 152.5 18.333 199.5 55s70.5 85 70.5 145s-18.667 105.333 -56 136c-31.333 24.667 -72.333 45.667 -123 63l-87 29
c-31.333 10.667 -53.333 22 -66 34s-19 28.667 -19 50c0 51.333 30.333 77 91 77c34.667 0 69 -6.66699 103 -20l15 -74h97l14 160c-80 18 -155 27 -225 27s-125.333 -16.667 -166 -50s-61 -75.333 -61 -126s12.5 -91.5 37.5 -122.5s58.833 -53.833 101.5 -68.5l117 -41
c40 -14 66.333 -27.167 79 -39.5s19 -31.166 19 -56.499s-11.167 -45.333 -33.5 -60s-52.5 -22 -90.5 -22s-74.667 8.33301 -110 25zM219 15.999h102l6 -138h-114z" />
    <glyph glyph-name="percent" unicode="%" horiz-adv-x="713" 
d="M217 -37l-80 50l363 598l78 -51zM636.5 27c-29 -24.667 -64.334 -37 -106.001 -37s-75 12.5 -100 37.5s-37.5 56.5 -37.5 94.5s13.167 70.833 39.5 98.5s61.833 41.5 106.5 41.5s79.334 -13.333 104.001 -40s37 -59.667 37 -99s-14.5 -71.333 -43.5 -96zM588.999 132
c0 14.667 -5.50098 27 -16.501 37s-25.5 15 -43.5 15c-30 0 -45 -20 -45 -60c0 -17.333 5.33301 -31.5 16 -42.5s24.334 -16.5 41.001 -16.5c32 0 48 22.333 48 67zM276.498 349c-29 -24.667 -64.334 -37 -106.001 -37s-75 12.5 -100 37.5s-37.5 56.5 -37.5 94.5
s13.167 70.833 39.5 98.5s61.833 41.5 106.5 41.5s79.334 -13.333 104.001 -40s37 -59.667 37 -99s-14.5 -71.333 -43.5 -96zM228.997 454c0 14.667 -5.50098 27 -16.501 37s-25.5 15 -43.5 15c-30 0 -45 -20 -45 -60c0 -17.333 5.33301 -31.5 16 -42.5
s24.334 -16.5 41.001 -16.5c32 0 48 22.333 48 67z" />
    <glyph glyph-name="ampersand" unicode="&#x26;" horiz-adv-x="737" 
d="M618 288l35.001 -77.999l-68 -52l14 -16c28 -32.667 55 -49 81 -49c16 0 31 2.66699 45 8l-10 -91c-24 -13.333 -48.167 -20 -72.5 -20s-45.666 5 -63.999 15s-32.5 20 -42.5 30s-26 27.667 -48 53c-90 -66 -172.333 -99 -247 -99c-38 0 -71 6 -99 18s-49 27.667 -63 47
c-26.667 38 -40 77.333 -40 118s6.5 73.334 19.5 98.001s32.167 48 57.5 70l97 83c-5.33301 7.33301 -14 18.666 -26 33.999s-20.5 26.666 -25.5 33.999s-10.833 17 -17.5 29c-12 22.667 -18 44.5 -18 65.5s3.16699 38.833 9.5 53.5s16.5 29 30.5 43
c30.667 32 82.834 48 156.501 48s143.167 -16.667 208.5 -50l-18 -141h-100v81c-24.667 16 -57 24 -97 24c-16.667 0 -29.834 -4.66699 -39.501 -14s-14.5 -20 -14.5 -32s2 -23.5 6 -34.5s8 -20.5 12 -28.5s11 -18.5 21 -31.5l21.5 -27.5
c4.33301 -5.33301 12.666 -14.833 24.999 -28.5s19.166 -21.5 20.499 -23.5l160 -196zM424.001 161.001l-144.998 176.003l-46 -45c-12.667 -12.667 -21.834 -22.334 -27.501 -29.001s-11.334 -16.834 -17.001 -30.501s-8.5 -31 -8.5 -52s8.33301 -40.5 25 -58.5
s39 -27 67 -27s56.333 7.66699 85 23s51 29.666 67 42.999z" />
    <glyph glyph-name="quotesingle" unicode="'" horiz-adv-x="180" 
d="M145 746l-18 -218.999h-74l-18 219v7c0 15.333 4 26.166 12 32.499s20.833 9.5 38.5 9.5s30.5 -1.66699 38.5 -5c14 -6 21 -18.333 21 -37v-7z" />
    <glyph glyph-name="parenleft" unicode="(" horiz-adv-x="337" 
d="M315 -159l-63 -56c-51.333 53.333 -97 125.333 -137 216s-60 186.334 -60 287.001s19.833 196 59.5 286s85.5 162 137.5 216l63 -60c-46 -66 -79.5 -139.833 -100.5 -221.5s-31.5 -155.834 -31.5 -222.501s10.5 -141 31.5 -223s54.5 -156 100.5 -222z" />
    <glyph glyph-name="parenright" unicode=")" horiz-adv-x="337" 
d="M85 -215l-63 56c46 66 79.5 140 100.5 222s31.5 156.333 31.5 223s-10.5 140.834 -31.5 222.501s-54.5 155.5 -100.5 221.5l63 60c52 -54 97.833 -126 137.5 -216s59.5 -185.333 59.5 -286s-20 -196.334 -60 -287.001s-85.667 -162.667 -137 -216z" />
    <glyph glyph-name="asterisk" unicode="*" horiz-adv-x="384" 
d="M130 634l-58.999 14.001c-22.667 5.33301 -34 18.666 -34 39.999c0 10 3 20.333 9 31l16 28l101 -70l-15 60l-2 15c0 13.333 4.83301 23.833 14.5 31.5s21.834 11.5 36.501 11.5h33l-11 -120l44 41c9.33301 8.66699 21.5 13 36.5 13s27.833 -9 38.5 -27l17 -28l-110 -51
l57 -18c23.333 -7.33301 35 -21.333 35 -42c0 -10 -3.33301 -20 -10 -30l-16 -27l-101 71l15 -61c1.33301 -5.33301 2 -12.5 2 -21.5s-4.83301 -17.167 -14.5 -24.5s-21.834 -11 -36.501 -11h-33l11 120l-43 -41c-10 -9.33301 -22.333 -14 -37 -14s-27.334 9 -38.001 27
l-18 28z" />
    <glyph glyph-name="plus" unicode="+" horiz-adv-x="520" 
d="M311 10h-108v180h-164v104h164v176h108v-176h170v-104h-170v-180z" />
    <glyph glyph-name="comma" unicode="," horiz-adv-x="255" 
d="M212 48c0 -36 -12.001 -72.499 -36.001 -109.499s-54.667 -65.5 -92 -85.5l-41 43c46.667 28 72.334 60.667 77.001 98c-5.33301 -2.66699 -14 -4 -26 -4s-23.5 6.16699 -34.5 18.5s-16.5 29.166 -16.5 50.499c0 50.667 25.333 76 76 76c62 0 93 -29 93 -87z" />
    <glyph glyph-name="hyphen" unicode="-" horiz-adv-x="392" 
d="M53 202v105h286v-105h-286z" />
    <glyph glyph-name="period" unicode="." horiz-adv-x="251" 
d="M194 125.5c9.33301 -13 14 -33.168 14 -60.501s-6.83301 -46.666 -20.5 -57.999s-34.5 -17 -62.5 -17s-48.667 5.16699 -62 15.5s-20 29.5 -20 57.5s6 48.667 18 62s34.833 20 68.5 20s55.167 -6.5 64.5 -19.5z" />
    <glyph glyph-name="slash" unicode="/" horiz-adv-x="435" 
d="M306 720h116l-304 -864h-116z" />
    <glyph glyph-name="zero" unicode="0" horiz-adv-x="624" 
d="M515.5 449c46.333 -47.333 69.5 -108.501 69.5 -183.501s-25.5 -139.667 -76.5 -194s-118.833 -81.5 -203.5 -81.5s-150.167 23.667 -196.5 71s-69.5 108.333 -69.5 183s25.5 139.334 76.5 194.001s118.833 82 203.5 82s150.167 -23.667 196.5 -71zM420.5 129.999
c21.667 32.667 32.5 75.5 32.5 128.5s-13.667 94.667 -41 125s-63.5 45.5 -108.5 45.5s-78.333 -16.333 -100 -49s-32.5 -75.5 -32.5 -128.5s13.5 -94.667 40.5 -125s63.167 -45.5 108.5 -45.5s78.833 16.333 100.5 49z" />
    <glyph glyph-name="one" unicode="1" horiz-adv-x="366" 
d="M253 510v-385c0 -14.667 1.5 -24.667 4.5 -30s9.5 -8.33301 19.5 -9l70 -7v-79h-313v79l75 7c10 0.666992 16.5 3.66699 19.5 9s4.5 15.333 4.5 30v266l-100 -45v99l127 65h93z" />
    <glyph glyph-name="two" unicode="2" horiz-adv-x="448" 
d="M411 100l-0.000976562 -99.998h-394v21c0 40.667 5.5 72.5 16.5 95.5s25.667 42.167 44 57.5s47.333 34 87 56s69.834 42.667 90.501 62s31 40.666 31 63.999s-6.16699 41.666 -18.5 54.999s-29 20 -50 20s-47.5 -4 -79.5 -12l-15 -71h-80l-12 141
c70 20.667 135.5 31 196.5 31s107.333 -13.833 139 -41.5s47.5 -64.667 47.5 -111s-15.5 -84.833 -46.5 -115.5s-71.667 -57.5 -122 -80.5s-76.5 -46.833 -78.5 -71.5h244z" />
    <glyph glyph-name="three" unicode="3" horiz-adv-x="448" 
d="M107 140l-5.00098 84.001c49.333 9.33301 90.666 27.333 123.999 54c12.667 10 23.667 23.5 33 40.5s14 35.167 14 54.5s-6 35.5 -18 48.5s-29.833 19.5 -53.5 19.5s-49.5 -3.33301 -77.5 -10l-12 -67h-80l-8 133c80 15.333 147.667 23 203 23s98 -14.167 128 -42.5
s45 -63.5 45 -105.5c0 -73.333 -44 -128.666 -132 -165.999c51.333 -12.667 90 -31.834 116 -57.501s39 -62.834 39 -111.501c0 -60 -21 -110.167 -63 -150.5s-95.833 -60.5 -161.5 -60.5s-130.167 15 -193.5 45l23 77c12.667 -4.66699 37.334 -10.5 74.001 -17.5
s64 -10.5 82 -10.5c35.333 0 62.833 11.833 82.5 35.5s29.5 49.5 29.5 77.5s-8.66699 50.5 -26 67.5s-41.666 27.167 -72.999 30.5z" />
    <glyph glyph-name="four" unicode="4" horiz-adv-x="527" 
d="M509 100v-100h-71v-164h-120v164h-254l-55 100l291 430l78 -81l-225 -349h165v150h120v-150h71z" />
    <glyph glyph-name="five" unicode="5" horiz-adv-x="458" 
d="M407 510v-99h-221l-15 -151l80 -11c118 -16 177 -80 177 -192c0 -70 -22.333 -126 -67 -168s-99.5 -63 -164.5 -63s-128.5 15 -190.5 45l20 77c14 -4.66699 38.5 -10.5 73.5 -17.5s60.167 -10.5 75.5 -10.5c38 0 67.667 11.833 89 35.5s32 53 32 88s-9 61 -27 78
s-48.333 28.833 -91 35.5l-126 19l26 334h329z" />
    <glyph glyph-name="six" unicode="6" horiz-adv-x="548" 
d="M516 211c0 -68 -22.333 -121.833 -67 -161.5s-105.5 -59.5 -182.5 -59.5s-134.167 25.5 -171.5 76.5s-56 117.833 -56 200.5c0 136 41.333 247.167 124 333.5s184 129.5 304 129.5v-85c-74 -3.33301 -137.833 -30.333 -191.5 -81s-86.167 -108.667 -97.5 -174
c29.333 29.333 71 44 125 44c68 0 120.5 -20.167 157.5 -60.5s55.5 -94.5 55.5 -162.5zM388 213c0 81.333 -34.666 122 -103.999 122c-20.667 0 -39.334 -3.83301 -56.001 -11.5s-28.334 -16.5 -35.001 -26.5c-12.667 -20 -18.834 -49.167 -18.501 -87.5s10.333 -69 30 -92
s46.834 -34.5 81.501 -34.5s60.334 12.667 77.001 38s25 56 25 92z" />
    <glyph glyph-name="seven" unicode="7" horiz-adv-x="451" 
d="M147 -182l-106.999 65.001l164.5 296c60.333 112.667 95.166 187 104.499 223h-160c-14 0 -23.667 -1.5 -29 -4.5s-8.33301 -10.5 -9 -22.5l-6 -57h-83l-9 186h436v-27c0 -30.667 -9.33301 -65.334 -28 -104.001z" />
    <glyph glyph-name="eight" unicode="8" horiz-adv-x="514" 
d="M183 379l88 -34.002c-22 -15.333 -37.667 -26.5 -47 -33.5s-20.666 -17.5 -33.999 -31.5c-23.333 -24.667 -35 -57.667 -35 -99c0 -29.333 11 -53.5 33 -72.5s49.667 -28.5 83 -28.5c58 0 87 30 87 90c0 35.333 -9.16699 64 -27.5 86s-54.333 49.5 -108 82.5
s-95 64.833 -124 95.5s-43.5 67.667 -43.5 111c0 62.667 19.667 109.167 59 139.5s89.166 45.5 149.499 45.5s108 -14.5 143 -43.5s52.5 -68.833 52.5 -119.5c0 -31.333 -3.66699 -54.166 -11 -68.499l-16 -31.5c-3.33301 -6.66699 -10.333 -15.5 -21 -26.5l-21.5 -22
c-3.66699 -3.66699 -13 -11.667 -28 -24l-28.5 -23.5l-90 32c26 24.667 44 42.334 54 53.001s19.833 26 29.5 46s14.5 42.333 14.5 67s-9 43 -27 55s-39.833 18 -65.5 18s-44.167 -6.16699 -55.5 -18.5s-17 -30.666 -17 -54.999s6.66699 -46.333 20 -66
s28.833 -36.334 46.5 -50.001s46.167 -33.5 85.5 -59.5c60 -37.333 101 -69.5 123 -96.5s33 -68 33 -123s-22 -99.333 -66 -133s-100 -50.5 -168 -50.5s-121.667 15 -161 45s-59 76.667 -59 140c0 35.333 10 68.333 30 99c16.667 26 57.667 61 123 105z" />
    <glyph glyph-name="nine" unicode="9" horiz-adv-x="530" 
d="M85 127c-38.667 41.333 -57.999 97.332 -57.999 167.999s21 125.834 63 165.501s100.167 59.5 174.5 59.5s132.166 -24.333 173.499 -73s62 -116.167 62 -202.5s-17.833 -167.5 -53.5 -243.5s-85.667 -136.833 -150 -182.5s-135.833 -68.5 -214.5 -68.5l-15 90
c68 0 131.833 27 191.5 81s94.5 118.333 104.5 193c-28 -32.667 -68.667 -49 -122 -49c-65.333 0 -117.333 20.667 -156 62zM154.001 281.999c0 -77.333 35 -116 105 -116c22 0 41.833 4 59.5 12s29.5 16.667 35.5 26c8.66699 16 13 44.5 13 85.5s-9.66699 74 -29 99
s-47.333 37.5 -84 37.5c-66.667 0 -100 -48 -100 -144z" />
    <glyph glyph-name="colon" unicode=":" horiz-adv-x="251" 
d="M194 125.5c9.33301 -13 14 -33.168 14 -60.501s-6.83301 -46.666 -20.5 -57.999s-34.5 -17 -62.5 -17s-48.667 5.16699 -62 15.5s-20 29.5 -20 57.5s6 48.667 18 62s34.833 20 68.5 20s55.167 -6.5 64.5 -19.5zM194 475.499c9.33301 -13 14 -33.168 14 -60.501
s-6.83301 -46.666 -20.5 -57.999s-34.5 -17 -62.5 -17s-48.667 5.16699 -62 15.5s-20 29.5 -20 57.5s6 48.667 18 62s34.833 20 68.5 20s55.167 -6.5 64.5 -19.5z" />
    <glyph glyph-name="semicolon" unicode=";" horiz-adv-x="247" 
d="M206 48c0 -36 -11.501 -72.499 -34.501 -109.499s-52.5 -65.5 -88.5 -85.5l-41 43c46.667 28 72.334 60.667 77.001 98c-5.33301 -2.66699 -14 -4 -26 -4s-23.5 6.16699 -34.5 18.5s-16.5 29.166 -16.5 50.499c0 50.667 25.333 76 76 76c58.667 0 88 -29 88 -87z
M192.999 475.501c9.33301 -13 14 -33.168 14 -60.501s-6.83301 -46.666 -20.5 -57.999s-34.5 -17 -62.5 -17s-48.667 5.16699 -62 15.5s-20 29.5 -20 57.5s6 48.667 18 62s34.833 20 68.5 20s55.167 -6.5 64.5 -19.5z" />
    <glyph glyph-name="less" unicode="&#x3c;" horiz-adv-x="551" 
d="M41 243l410 263l51 -79l-289 -184l290 -183l-52 -80z" />
    <glyph glyph-name="equal" unicode="=" horiz-adv-x="548" 
d="M59 286v100h430v-100h-430zM59 83v100h430v-100h-430z" />
    <glyph glyph-name="greater" unicode="&#x3e;" horiz-adv-x="551" 
d="M100 506l410 -263l-410 -263l-52 80l290 183l-289 184z" />
    <glyph glyph-name="question" unicode="?" horiz-adv-x="465" 
d="M336 577c0 49.333 -26.998 74.0049 -80.998 74.0049c-29.333 0 -59.666 -7 -90.999 -21l-10 -64h-84l-11 137c66.667 21.333 133.167 32 199.5 32s116.166 -14.667 149.499 -44s50 -65.5 50 -108.5s-7.16699 -78.833 -21.5 -107.5s-31.833 -50.834 -52.5 -66.501
s-41.334 -29.834 -62.001 -42.501s-38.834 -26.834 -54.501 -42.501s-24.167 -33.834 -25.5 -54.501l-5 -65l-96 -7c0 0.666992 -1.66699 14.167 -5 40.5s-5 49.166 -5 68.499s5 36.333 15 51s22.667 27 38 37l49.5 33.5c17.667 12.333 34.167 24.5 49.5 36.5
s28 27.833 38 47.5s15 41.5 15 65.5zM271.002 56.0049c0 -44 -26.335 -66 -79.002 -66c-26 0 -45.333 4.83301 -58 14.5s-19 27 -19 52s5.83301 43.667 17.5 56s32.834 18.5 63.501 18.5s50.834 -6 60.501 -18s14.5 -31 14.5 -57z" />
    <glyph glyph-name="at" unicode="@" horiz-adv-x="817" 
d="M526 444l74.001 17l-33 -214l-1 -12c0 -11.333 2.66699 -19.833 8 -25.5s11.333 -8.5 18 -8.5c22.667 0 42.334 17.667 59.001 53s25 76.666 25 123.999c0 60 -21.333 106.5 -64 139.5s-98.334 49.5 -167.001 49.5s-122.334 -12.333 -161.001 -37
c-31.333 -17.333 -61 -54.333 -89 -111s-42 -119.167 -42 -187.5s22.667 -121.833 68 -160.5s100.333 -58 165 -58c96 0 195.667 21.667 299 65l40 -61c-120.667 -68.667 -242 -103 -364 -103c-87.333 0 -163 28.167 -227 84.5s-96 129.5 -96 219.5
c0 76 12.333 141.833 37 197.5s52 98.834 82 129.501c77.333 80 180 120 308 120c100.667 0 179.167 -27.333 235.5 -82s84.5 -120.667 84.5 -198s-20.833 -142 -62.5 -194s-89.834 -78 -144.501 -78c-32 0 -59.333 19 -82 57c-58.667 -44.667 -106.167 -67 -142.5 -67
s-67 13.167 -92 39.5s-37.5 56.333 -37.5 90s6.33301 66.667 19 99s27.334 57.5 44.001 75.5c39.333 42.667 87 64 143 64c34.667 0 66.667 -9 96 -27zM478.001 252l15.0029 112.001c-16.667 12.667 -38.334 19.167 -65.001 19.5s-47.334 -6.83398 -62.001 -21.501
c-22.667 -26 -34 -63.333 -34 -112c0 -13.333 2.66699 -24 8 -32c8.66699 -10.667 19.667 -16 33 -16s30.666 5.5 51.999 16.5s39 22.167 53 33.5z" />
    <glyph glyph-name="A" unicode="A" 
d="M82 132l208 588h119l212 -588c6 -17.333 12 -28.666 18 -33.999s16 -9.33301 30 -12l34 -7v-79h-289v77l50 9c18 2.66699 27 9.66699 27 21c0 4 -1.66699 11.667 -5 23l-31 88h-224l-28 -85c-3.33301 -10 -5 -17.667 -5 -23c0 -13.333 9.33301 -21.333 28 -24l49 -9v-77
h-273v79l33 7c13.333 2.66699 23 6.66699 29 12s12 16.666 18 33.999zM420 316l-67 192l-13 51l-10 -49l-66 -194h156z" />
    <glyph glyph-name="B" unicode="B" horiz-adv-x="650" 
d="M125 126v468.001c0 12.667 -1.83301 21.5 -5.5 26.5s-11.5 8.83301 -23.5 11.5l-48 9v79h272c80 0 140 -11.333 180 -34s60 -65.334 60 -128.001c0 -46 -12 -85.167 -36 -117.5s-49.667 -51.833 -77 -58.5c49.333 -4.66699 88.833 -20.167 118.5 -46.5
s44.5 -65.833 44.5 -118.5c0 -67.333 -23 -120.333 -69 -159s-108.333 -58 -187 -58h-306v79l48 9c12 2.66699 19.833 6.5 23.5 11.5s5.5 13.833 5.5 26.5zM252 620.001l0.000976562 -202h58c39.333 0 65.666 4.33301 78.999 13c24.667 14 37 46.667 37 98
c0 35.333 -10.667 59.333 -32 72s-52 19 -92 19h-50zM252.001 320.001v-220h93c87.333 0 131 38.333 131 115c0 70 -45.333 105 -136 105h-88z" />
    <glyph glyph-name="C" unicode="C" horiz-adv-x="663" 
d="M592 140l27 -89.001c-20 -10 -51.333 -21 -94 -33c-66.667 -18.667 -123.667 -28 -171 -28c-210 0 -315 120.667 -315 362c0 108 26.667 197.333 80 268c26.667 34.667 62.167 61.667 106.5 81s91.333 29 141 29s92 -3.5 127 -10.5s75.167 -22.5 120.5 -46.5l-16 -173
h-97l-21 105c-42 13.333 -87 20 -135 20s-85.667 -11.333 -113 -34c-16.667 -14 -30.167 -45.833 -40.5 -95.5s-15.5 -95.167 -15.5 -136.5c0 -81.333 16.667 -145.166 50 -191.499s83 -69.5 149 -69.5s138.333 14 217 42z" />
    <glyph glyph-name="D" unicode="D" horiz-adv-x="727" 
d="M503.5 165c31.667 42 47.499 109.833 47.499 203.5s-15.5 158.667 -46.5 195s-81.5 54.5 -151.5 54.5h-101v-516h101c68.667 0 118.834 21 150.501 63zM47.999 720l315 0.000976562c114 0 196.667 -30 248 -90s77 -145.833 77 -257.5s-27 -201.667 -81 -270
s-135.333 -102.5 -244 -102.5h-315v80l48 9c12 2.66699 19.833 6.66699 23.5 12s5.5 14.666 5.5 27.999v469c0 13.333 -1.83301 23 -5.5 29s-11.5 9.66699 -23.5 11l-48 6v76z" />
    <glyph glyph-name="E" unicode="E" horiz-adv-x="633" 
d="M579 0h-530.999v80l48 9c12 2.66699 19.833 6.5 23.5 11.5s5.5 13.833 5.5 26.5v471c0 13.333 -1.83301 23 -5.5 29s-11.5 9.66699 -23.5 11l-48 6v76h527l-7 -198h-84l-7 65c-1.33301 12 -4.83301 19.833 -10.5 23.5s-14.834 5.5 -27.501 5.5h-187v-190h211v-104h-211
v-218h188c12.667 0 22 1.83301 28 5.5s9.33301 11.5 10 23.5l7 70h87z" />
    <glyph glyph-name="F" unicode="F" horiz-adv-x="577" 
d="M48 720l517.001 -0.000976562l-7 -193h-84l-7 65c-1.33301 12 -4.83301 19.833 -10.5 23.5s-14.834 5.5 -27.501 5.5h-177v-202h191v-104h-191v-189c0 -13.333 2 -22.666 6 -27.999s12 -8.66602 24 -9.99902l66 -8v-80h-300v79l48 9c12 2.66699 19.833 6.5 23.5 11.5
s5.5 13.833 5.5 26.5v476c0 12 -2 20.667 -6 26s-11.667 8.66602 -23 9.99902l-48 6v76z" />
    <glyph glyph-name="G" unicode="G" horiz-adv-x="722" 
d="M176 359c0 -78 16.165 -141.333 48.498 -190s80.833 -73 145.5 -73c45.333 0 86.333 6.66699 123 20v96c0 12.667 -1.83301 21.667 -5.5 27s-11.5 9 -23.5 11l-52 9v79h266v-79l-34 -7c-12.667 -2.66699 -20.334 -6.16699 -23.001 -10.5s-4 -13.5 -4 -27.5v-163
c-97.333 -40.667 -184.666 -61 -261.999 -61c-109.333 0 -189.333 30.667 -240 92s-76 151.333 -76 270c0 108 26.667 197.333 80 268c26.667 34.667 62.167 61.667 106.5 81s91.833 29 142.5 29s94.5 -3.5 131.5 -10.5s79.167 -22.5 126.5 -46.5l-16 -173h-97l-21 100
c-43.333 16.667 -90.666 25 -141.999 25s-90.666 -11.333 -117.999 -34c-16.667 -14 -30.167 -45.667 -40.5 -95s-15.5 -95 -15.5 -137z" />
    <glyph glyph-name="H" unicode="H" horiz-adv-x="792" 
d="M667 594v-468c0 -12.667 1.83301 -21.5 5.5 -26.5s11.5 -8.83301 23.5 -11.5l48 -9v-79h-286v79l53 9c12 2 19.833 5.5 23.5 10.5s5.5 14.167 5.5 27.5v200h-288v-200c0 -13.333 1.83301 -22.5 5.5 -27.5s11.5 -8.5 23.5 -10.5l53 -9v-79h-286v79l48 9
c12 2.66699 19.833 6.5 23.5 11.5s5.5 13.833 5.5 26.5v468c0 12.667 -1.83301 21.5 -5.5 26.5s-11.5 8.83301 -23.5 11.5l-48 9v79h286v-79l-53 -9c-12 -2 -19.833 -5.5 -23.5 -10.5s-5.5 -14.167 -5.5 -27.5v-166h288v166c0 13.333 -1.83301 22.5 -5.5 27.5
s-11.5 8.5 -23.5 10.5l-53 9v79h286v-79l-48 -9c-12 -2.66699 -19.833 -6.5 -23.5 -11.5s-5.5 -13.833 -5.5 -26.5z" />
    <glyph glyph-name="I" unicode="I" horiz-adv-x="377" 
d="M329 79v-79h-281v79l48 9c12 2.66699 19.833 6.5 23.5 11.5s5.5 13.833 5.5 26.5v468c0 12.667 -1.83301 21.5 -5.5 26.5s-11.5 8.83301 -23.5 11.5l-48 9v79h281v-79l-48 -9c-12 -2.66699 -19.833 -6.5 -23.5 -11.5s-5.5 -13.833 -5.5 -26.5v-468
c0 -12.667 1.83301 -21.5 5.5 -26.5s11.5 -8.83301 23.5 -11.5z" />
    <glyph glyph-name="J" unicode="J" horiz-adv-x="349" 
d="M25 -156l-59.999 80.999c65.333 40.667 107.166 76 125.499 106s27.5 79.333 27.5 148v415c0 12.667 -1.83301 21.5 -5.5 26.5s-11.5 8.83301 -23.5 11.5l-48 9v79h281v-79l-48 -9c-12 -2.66699 -19.833 -6.5 -23.5 -11.5s-5.5 -13.833 -5.5 -26.5v-446
c0 -31.333 -1 -57.666 -3 -78.999s-6.83301 -41.333 -14.5 -60s-15.834 -34 -24.501 -46s-22.667 -25 -42 -39c-29.333 -22 -74.666 -48.667 -135.999 -80z" />
    <glyph glyph-name="K" unicode="K" horiz-adv-x="697" 
d="M562 601l-182.999 -200l169 -233c21.333 -30 38.833 -49.833 52.5 -59.5s29 -14.5 46 -14.5s33.167 3.33301 48.5 10l-8 -92c-24 -14.667 -53.333 -22 -88 -22s-63.5 8.83301 -86.5 26.5s-46.5 44.5 -70.5 80.5l-190 281v-252c0 -13.333 1.83301 -22.5 5.5 -27.5
s11.5 -8.5 23.5 -10.5l52 -9v-79h-285v79l48 9c12 2.66699 19.833 6.5 23.5 11.5s5.5 13.833 5.5 26.5v468c0 12.667 -1.83301 21.5 -5.5 26.5s-11.5 8.83301 -23.5 11.5l-48 9v79h285v-79l-52 -9c-12 -2 -19.833 -5.5 -23.5 -10.5s-5.5 -14.167 -5.5 -27.5v-184l238 266
c25.333 29.333 58.333 44 99 44h65v-88c-16 0 -28 -0.333008 -36 -1c-20.667 -2 -39.334 -12 -56.001 -30z" />
    <glyph glyph-name="L" unicode="L" horiz-adv-x="557" 
d="M545 0h-497v79l48 9c12 2.66699 19.833 6.5 23.5 11.5s5.5 13.833 5.5 26.5v468c0 12.667 -1.83301 21.5 -5.5 26.5s-11.5 8.83301 -23.5 11.5l-48 9v79h288v-79l-55 -9c-12 -2 -19.833 -5.5 -23.5 -10.5s-5.5 -14.167 -5.5 -27.5v-490h155c12.667 0 22 1.83301 28 5.5
s9.33301 11.5 10 23.5l7 70h86z" />
    <glyph glyph-name="M" unicode="M" horiz-adv-x="975" 
d="M263 461l-19.999 64v-65l-22 -341c-0.666992 -20 9.33301 -31.333 30 -34l47 -6v-79h-267v79l48 9c12 2.66699 19.5 6.16699 22.5 10.5s5.16699 13.166 6.5 26.499l40 480c2 17.333 -8 27.333 -30 30l-47 6v79h231l179 -510l11 -52l10 52l166 510h240v-79l-51 -6
c-16.667 -2 -26.334 -7 -29.001 -15c-1.33301 -3.33301 -2 -6.5 -2 -9.5v-7.5l43 -478c1.33301 -13.333 3.5 -22.333 6.5 -27s10.5 -8 22.5 -10l54 -9v-79h-286v79l49 6c21.333 2.66699 31 13.334 29 32.001l-28 343l-2 65l-15 -62l-156 -463h-116z" />
    <glyph glyph-name="N" unicode="N" horiz-adv-x="802" 
d="M49 720l208 -0.00195312l307 -491v366c0 13.333 -1.66699 23 -5 29s-11 9.66699 -23 11l-47 6v79h278v-79l-47 -6c-12 -1.33301 -19.833 -5 -23.5 -11s-5.5 -15.667 -5.5 -29v-595h-132l-307 491v-365c0 -13.333 1.83301 -22.666 5.5 -27.999
s11.5 -8.66602 23.5 -9.99902l48 -9v-79h-281v79l48 9c12 2 19.833 5.5 23.5 10.5s5.5 14.167 5.5 27.5v469c0 13.333 -1.83301 23 -5.5 29s-11.5 9.66699 -23.5 11l-47 6v79z" />
    <glyph glyph-name="O" unicode="O" horiz-adv-x="741" 
d="M622 104c-27.333 -35.333 -64.5 -63.166 -111.5 -83.499s-101.5 -30.5 -163.5 -30.5c-106.667 0 -184.667 33 -234 99s-74 156.333 -74 271c0 100.667 27 186 81 256c26.667 35.333 63.5 63.166 110.5 83.499s101.5 30.5 163.5 30.5c106.667 0 184.667 -33 234 -99
s74 -152.833 74 -260.5s-26.667 -196.5 -80 -266.5zM511.5 557.5c-35.667 45.667 -84.667 68.5 -147 68.5s-106.166 -11.667 -131.499 -35c-18 -16.667 -32 -48.5 -42 -95.5s-15 -94.167 -15 -141.5c0 -82 17.833 -145.833 53.5 -191.5s85 -68.5 148 -68.5
s106.5 11.667 130.5 35c17.333 16.667 31.166 48.667 41.499 96s15.5 94.333 15.5 141c0 82 -17.833 145.833 -53.5 191.5z" />
    <glyph glyph-name="P" unicode="P" horiz-adv-x="582" 
d="M252 620v-245.999h54c45.333 0 76.333 7 93 21c22.667 19.333 34 60.666 34 123.999c0 67.333 -40 101 -120 101h-61zM125 126.001l0.000976562 467.997c0 12.667 -1.83301 21.5 -5.5 26.5s-11.5 8.83301 -23.5 11.5l-48 9v79h274c81.333 0 143 -13.5 185 -40.5
s63 -77.667 63 -152s-26.333 -135.166 -79 -182.499s-113.334 -71 -182.001 -71h-57v-148c0 -13.333 2 -22.666 6 -27.999s12 -8.66602 24 -9.99902l66 -8v-80h-300v79l48 9c12 2.66699 19.833 6.5 23.5 11.5s5.5 13.833 5.5 26.5z" />
    <glyph glyph-name="Q" unicode="Q" horiz-adv-x="741" 
d="M239 -162l-30.002 80c44 22 87 33 129 33s93.833 -9.16699 155.5 -27.5s103.834 -27.5 126.501 -27.5s49.334 7.33301 80.001 22l22 -77c-35.333 -34 -76.666 -51 -123.999 -51c-33.333 0 -80.833 10.167 -142.5 30.5s-108.834 30.5 -141.501 30.5
c-15.333 0 -40.333 -4.33301 -75 -13zM621.998 104c-27.333 -35.333 -64.5 -63.166 -111.5 -83.499s-101.5 -30.5 -163.5 -30.5c-106.667 0 -184.667 33 -234 99s-74 156.333 -74 271c0 100.667 27 186 81 256c26.667 35.333 63.5 63.166 110.5 83.499
s101.5 30.5 163.5 30.5c106.667 0 184.667 -33 234 -99s74 -152.833 74 -260.5s-26.667 -196.5 -80 -266.5zM511.498 557.5c-35.667 45.667 -84.667 68.5 -147 68.5s-106.166 -11.667 -131.499 -35c-18 -16.667 -32 -48.5 -42 -95.5s-15 -94.167 -15 -141.5
c0 -82 17.833 -145.833 53.5 -191.5s85 -68.5 148 -68.5s106.5 11.667 130.5 35c17.333 16.667 31.166 48.667 41.499 96s15.5 94.333 15.5 141c0 82 -17.833 145.833 -53.5 191.5z" />
    <glyph glyph-name="R" unicode="R" horiz-adv-x="671" 
d="M252 620v-213.001h69c38.667 0 64.667 5.33301 78 16c20 16.667 30 52.334 30 107.001c0 60 -39 90 -117 90h-60zM252 306.999l-0.000976562 -181.002c0 -13.333 2 -22.666 6 -27.999s12 -8.66602 24 -9.99902l56 -8v-80h-290v79l48 9
c12 1.33301 19.833 4.66602 23.5 9.99902s5.5 14.666 5.5 27.999v468c0 13.333 -1.83301 22.5 -5.5 27.5s-11.5 8.5 -23.5 10.5l-48 9v79h279c77.333 0 136.5 -13.667 177.5 -41s61.5 -73.666 61.5 -138.999c0 -37.333 -5.66699 -69.833 -17 -97.5s-26 -49.167 -44 -64.5
c-32 -26.667 -65 -42.667 -99 -48c22.667 -3.33301 40.334 -15.666 53.001 -36.999l86 -141c23.333 -38.667 49.333 -58 78 -58c20 0 35.333 2.66699 46 8l-10 -90c-26.667 -14.667 -58 -22 -94 -22c-48 0 -88.667 28 -122 84l-119 198c-15.333 23.333 -30 35 -44 35h-28z
" />
    <glyph glyph-name="S" unicode="S" horiz-adv-x="580" 
d="M155 207l12.999 -90.9961c36.667 -20 74.834 -30 114.501 -30s71.167 8.5 94.5 25.5s35 39.667 35 68s-6.83301 50.166 -20.5 65.499s-41.167 30.666 -82.5 45.999l-122 46c-92.667 35.333 -139 102.666 -139 201.999c0 57.333 20.667 103.333 62 138s97.833 52 169.5 52
s148.5 -9 230.5 -27l-14 -165h-97l-15 79c-33.333 13.333 -69.333 20 -108 20c-64 0 -96 -28.333 -96 -85c0 -50.667 30.667 -87.334 92 -110.001l85 -30c52.667 -18.667 95 -41 127 -67c38 -32 57 -79.667 57 -143s-23.833 -114.333 -71.5 -153s-115.5 -58 -203.5 -58
c-60.667 0 -112 7.33301 -154 22c-14.667 4.66699 -37.667 12.667 -69 24l12 171h100z" />
    <glyph glyph-name="T" unicode="T" horiz-adv-x="627" 
d="M479 620h-102v-494c0 -13.333 1.83301 -22.5 5.5 -27.5s11.5 -8.5 23.5 -10.5l52 -9v-79h-289v79l52 9c12 2 19.833 5.5 23.5 10.5s5.5 14.167 5.5 27.5v494h-103c-12.667 0 -21.667 -1.83301 -27 -5.5s-8.66602 -11.5 -9.99902 -23.5l-7 -68h-84l-7 197h603l-7 -197h-84
l-7 68c-1.33301 12 -4.83301 19.833 -10.5 23.5s-14.834 5.5 -27.501 5.5z" />
    <glyph glyph-name="U" unicode="U" horiz-adv-x="725" 
d="M630 594l-0.000976562 -362.005c0 -34 -5.5 -65 -16.5 -93s-25.5 -51 -43.5 -69s-39.333 -33.333 -64 -46c-45.333 -22.667 -96.666 -34 -153.999 -34c-84 0 -147.833 20.833 -191.5 62.5s-65.5 101.5 -65.5 179.5v362c0 13.333 -1.83301 22.5 -5.5 27.5
s-11.5 8.5 -23.5 10.5l-48 9v79h281v-79l-48 -9c-12 -1.33301 -19.833 -4.66602 -23.5 -9.99902s-5.5 -14.666 -5.5 -27.999v-346c0 -55.333 15.167 -94.666 45.5 -117.999s67.833 -35 112.5 -35s77 8 97 24s30 61.667 30 137v338c0 13.333 -1.83301 22.5 -5.5 27.5
s-11.5 8.5 -23.5 10.5l-48 9v79h277v-79l-48 -9c-12 -1.33301 -19.833 -4.66602 -23.5 -9.99902s-5.5 -14.666 -5.5 -27.999z" />
    <glyph glyph-name="V" unicode="V" horiz-adv-x="701" 
d="M372 159l7 52l117 383c2.66699 9.33301 4 15.666 4 18.999c0 12.667 -10.333 20.334 -31 23.001l-48 6v78h278v-79l-32 -4c-14 -1.33301 -24 -4.5 -30 -9.5s-12 -16.167 -18 -33.5l-195 -594h-119l-214 594c-6 16 -13.333 26.667 -22 32s-21 9 -37 11l-30 4v79h301v-78
l-48 -6c-19.333 -2.66699 -29 -9.66699 -29 -21c0 -4 1.66699 -11 5 -21l130 -382z" />
    <glyph glyph-name="W" unicode="W" horiz-adv-x="981" 
d="M508 397l-9 49.999l-8 -50l-110 -397h-133l-157 594c-4 16 -10.333 26.667 -19 32s-20.667 9 -36 11l-34 4v79h300v-78l-52 -6c-19.333 -2 -29 -9.33301 -29 -22c0 -5.33301 1 -12 3 -20l91 -356l9 -52l10 51l109 399h130l112 -400l9 -50l9 52l86 356
c1.33301 8 2 13 2 15c0 15.333 -11.333 24.333 -34 27l-48 6v78h270v-79l-30 -4c-14 -1.33301 -24 -4.66602 -30 -9.99902s-11 -16.333 -15 -33l-150 -594h-133z" />
    <glyph glyph-name="X" unicode="X" horiz-adv-x="727" 
d="M280 380l-157.999 213.999l-8 11c-3.33301 4.66699 -5.66602 7.83398 -6.99902 9.50098l-5.5 7c-2.33301 3 -4.33301 5 -6 6s-3.5 2.5 -5.5 4.5c-4.66699 2.66699 -10.334 4 -17.001 4l-47 5v79h294v-78l-37 -6c-14 -2 -21 -6.33301 -21 -13s4.66699 -16.334 14 -29.001
l101 -137l88 137c9.33301 14 14 24 14 30s-6.33301 10 -19 12l-33 6v78h274v-79l-46 -5c-12.667 -1.33301 -22.834 -4.83301 -30.501 -10.5s-16.5 -16.167 -26.5 -31.5l-153 -228l178 -240c20 -26.667 37.667 -40.667 53 -42l47 -5v-79h-314v78l42 6
c18.667 2.66699 28 9.33398 28 20.001c0 6 -3.33301 13.333 -10 22l-122 164l-104 -164c-8 -12.667 -12 -21.667 -12 -27c0 -8 7 -13 21 -15l43 -6v-78h-291v79l46 5c12.667 1.33301 23 5 31 11s17 16.333 27 31z" />
    <glyph glyph-name="Y" unicode="Y" horiz-adv-x="700" 
d="M604 594l-192 -356.003v-112c0 -13.333 1.83301 -22.5 5.5 -27.5s11.5 -8.5 23.5 -10.5l52 -9v-79h-289v79l52 9c12 2 19.833 5.5 23.5 10.5s5.5 14.167 5.5 27.5v122l-189 346c-8 14.667 -15.333 25 -22 31s-16 9.66699 -28 11l-44 5v79h297v-78l-35 -6
c-22 -3.33301 -33 -9.66602 -33 -18.999c0 -3.33301 3 -11 9 -23l121 -234l116 234c4.66699 8.66699 7 15.834 7 21.501s-2.5 9.83398 -7.5 12.501s-14.167 5 -27.5 7l-35 6v79h284v-79l-44 -5c-14 -2.66699 -23.667 -6.5 -29 -11.5s-12.333 -15.167 -21 -30.5z" />
    <glyph glyph-name="Z" unicode="Z" horiz-adv-x="619" 
d="M401 619h-203c-12.667 0 -22 -1.83301 -28 -5.5s-9.33301 -11.5 -10 -23.5l-7 -70h-87l-7 200h501v-96l-358 -520h239c12.667 0 22 1.83301 28 5.5s9.33301 11.5 10 23.5l7 70h87l7 -203h-537v99z" />
    <glyph glyph-name="bracketleft" unicode="[" horiz-adv-x="388" 
d="M355 780v-96h-140v-828h140v-96h-255v1020h255z" />
    <glyph glyph-name="backslash" unicode="\" horiz-adv-x="435" 
d="M13 720h116l304 -864h-116z" />
    <glyph glyph-name="bracketright" unicode="]" horiz-adv-x="388" 
d="M33 684v96h255v-1020h-255v96h140v828h-140z" />
    <glyph glyph-name="asciicircum" unicode="^" horiz-adv-x="579" 
d="M235 720h105l189 -342l-87 -50l-157 288l-152 -288l-83 40z" />
    <glyph glyph-name="underscore" unicode="_" horiz-adv-x="506" 
d="M0 -174v82h506v-82h-506z" />
    <glyph glyph-name="grave" unicode="`" horiz-adv-x="293" 
d="M49 690l74 77l149 -170c-22 -22 -40.833 -33 -56.5 -33s-28.5 4.66699 -38.5 14z" />
    <glyph glyph-name="a" unicode="a" horiz-adv-x="544" 
d="M449 351l-0.00195312 -242.001c0 -17.333 7.33301 -26.666 22 -27.999l51 -7v-74h-179l-8 59c-46 -46 -94.667 -69 -146 -69s-89 12 -113 36s-36 56.5 -36 97.5s12.833 74.5 38.5 100.5s62.834 42.333 111.501 49l139 18v58c0 42 -29 63 -87 63
c-26 0 -51 -5.33301 -75 -16l-12 -66h-79l-9 123c46.667 16.667 81.334 27.834 104.001 33.501s48.334 8.5 77.001 8.5c57.333 0 105.166 -11.833 143.499 -35.5s57.5 -59.834 57.5 -108.501zM328.998 211.999l-110 -18c-37.333 -6.66699 -56 -28 -56 -64
c0 -33.333 18.667 -50 56 -50c18.667 0 39.667 6.5 63 19.5s39 24.5 47 34.5v78z" />
    <glyph glyph-name="b" unicode="b" horiz-adv-x="563" 
d="M197 367l0.000976562 -256c28 -21.333 60.167 -32 96.5 -32s61.833 9.33301 76.5 28c20.667 26 31 69 31 129s-10 103.167 -30 129.5s-48.333 39.5 -85 39.5s-66.334 -12.667 -89.001 -38zM77.001 36l-0.00195312 636c0 17.333 -7.33301 26.666 -22 27.999l-57 6v74h199
v-335c14.667 13.333 33.834 25 57.501 35s47.167 15 70.5 15c58.667 0 107.334 -21.167 146.001 -63.5s58 -101.166 58 -176.499s-22.167 -138.333 -66.5 -189s-104.833 -76 -181.5 -76s-144.667 15.333 -204 46z" />
    <glyph glyph-name="c" unicode="c" horiz-adv-x="489" 
d="M434 109l15.998 -74.002c-59.333 -23.333 -101.166 -36.666 -125.499 -39.999s-44.5 -5 -60.5 -5c-75.333 0 -132.5 20.167 -171.5 60.5s-58.5 99.833 -58.5 178.5s21.833 142.667 65.5 192s102.834 74 177.501 74c32 0 63.333 -4.16699 94 -12.5
s54.667 -18.166 72 -29.499l-9 -133h-79l-17 73c-17.333 8.66699 -43.333 13 -78 13s-57.667 -8 -69 -24c-19.333 -28 -29 -77.667 -29 -149c0 -46 9.83301 -83.167 29.5 -111.5s47 -42.5 82 -42.5s88.5 10 160.5 30z" />
    <glyph glyph-name="d" unicode="d" horiz-adv-x="586" 
d="M359 137l0.000976562 240.999c-22 18.667 -51 28 -87 28s-63.667 -8 -83 -24c-10.667 -8 -18.834 -27.167 -24.501 -57.5s-8.5 -58.166 -8.5 -83.499c0 -108 34.333 -162 103 -162c20 0 39 6.16699 57 18.5s32.333 25.5 43 39.5zM275.001 779.999l204 -0.000976562v-671
c0 -17.333 7.33301 -26.666 22 -27.999l51 -7v-74h-179l-8 59c-46 -46 -91 -69 -135 -69c-62.667 0 -112 21 -148 63s-54 99.833 -54 173.5s22.667 136.834 68 189.501s107 79 185 79c15.333 0 41.333 -4.33301 78 -13v190c0 17.333 -7.33301 26.666 -22 27.999l-62 6v74z
" />
    <glyph glyph-name="e" unicode="e" horiz-adv-x="507" 
d="M470 234l-307.998 -22.001c5.33301 -88.667 46 -133 122 -133c42.667 0 97.667 9.66699 165 29l19 -72c-78.667 -30.667 -152.334 -46 -221.001 -46s-121.334 22 -158.001 66s-55 104.333 -55 181s21 138.834 63 186.501s101 71.5 177 71.5s127.667 -21.5 155 -64.5
s41 -108.5 41 -196.5zM160.002 290.999l192.999 16c-1.33301 66 -29.666 99 -84.999 99c-40 0 -66.5 -7.5 -79.5 -22.5s-22.5 -45.833 -28.5 -92.5z" />
    <glyph glyph-name="f" unicode="f" horiz-adv-x="364" 
d="M223 487l119 10v-93h-119v-295c0 -17.333 7.33301 -26.666 22 -27.999l69 -7v-74h-284v74l51 7c14.667 1.33301 22 10.666 22 27.999v295h-68v71l68 8v103c0 66 18.5 116.5 55.5 151.5s87.167 52.5 150.5 52.5c32.667 0 71.667 -8 117 -24l-41 -98
c-41.333 20.667 -77 31 -107 31c-36.667 0 -55 -21.333 -55 -64v-148z" />
    <glyph glyph-name="g" unicode="g" horiz-adv-x="534" 
d="M506 517l-0.000976562 -72.9922c-17.333 -14 -38 -23 -62 -27c19.333 -28.667 29 -63.334 29 -104.001c0 -54.667 -21.5 -99.834 -64.5 -135.501s-97.167 -53.5 -162.5 -53.5c-9.33301 0 -17.666 0.333008 -24.999 1l-11 -30c-1.33301 -2.66699 -2 -5.66699 -2 -9
c0 -6.66699 8.66699 -11.334 26 -14.001s43.333 -6.33398 78 -11.001s61 -8.33398 79 -11.001c39.333 -6.66699 68 -19.334 86 -38.001s27 -45.334 27 -80.001c0 -50 -23.333 -92.833 -70 -128.5s-107 -53.5 -181 -53.5c-96 0 -168.667 19.667 -218 59l23 129h78v-68
c37.333 -18.667 79.5 -28 126.5 -28s81.333 4.33301 103 13s32.5 26 32.5 52c0 22.667 -21.667 36.334 -65 41.001c-67.333 7.33301 -120.333 14.666 -159 21.999c-50.667 9.33301 -76 39.666 -76 90.999l52 78c-74 34.667 -111 90.667 -111 168c0 50 19 93.833 57 131.5
s96 56.5 174 56.5h40c52 0 87.833 1 107.5 3s49.167 8.33301 88.5 19zM188.499 233.508c15.667 -19 39.832 -28.501 72.499 -28.501s55.167 9.33301 67.5 28s18.5 48.334 18.5 89.001c0 63.333 -32.667 95 -98 95c-33.333 0 -56.666 -9.33301 -69.999 -28
c-9.33301 -12 -14 -36.167 -14 -72.5s7.83301 -64 23.5 -83z" />
    <glyph glyph-name="h" unicode="h" horiz-adv-x="627" 
d="M103 109l-0.000976562 563c0 17.333 -7.33301 26.666 -22 27.999l-51 6v74h193v-346c43.333 40.667 92 61 146 61s94.667 -14.333 122 -43s41 -64 41 -106v-237c0 -17.333 7.33301 -26.666 22 -27.999l51 -7v-74h-193v318c0 26 -7.16699 45.833 -21.5 59.5
s-34.166 20.5 -59.499 20.5c-40.667 0 -76.667 -15.667 -108 -47v-242c0 -17.333 7.33301 -26.666 22 -27.999l51 -7v-74h-266v74l51 7c14.667 1.33301 22 10.666 22 27.999z" />
    <glyph glyph-name="i" unicode="i" horiz-adv-x="321" 
d="M228 645c0 -44 -26.335 -66 -79.002 -66c-26 0 -45.333 4.83301 -58 14.5s-19 27 -19 52s5.83301 43.667 17.5 56s32.834 18.5 63.501 18.5s50.834 -6 60.501 -18s14.5 -31 14.5 -57zM222.998 485v-375.999c0 -17.333 7.33301 -26.666 22 -27.999l51 -7v-74h-266v74l51 7
c14.667 1.33301 22 10.666 22 27.999v268c0 17.333 -7.33301 26.666 -22 27.999l-51 6v74h193z" />
    <glyph glyph-name="j" unicode="j" horiz-adv-x="295" 
d="M218 485v-477.996c0 -69.333 -11.5 -119.333 -34.5 -150s-75.833 -66.334 -158.5 -107.001l-54 55c40.667 26 69 47.167 85 63.5s27 36.166 33 59.499s9 58.666 9 105.999v343c0 17.333 -7.33301 26.666 -22 27.999l-51 6v74h193zM223 645.004
c0 -44 -26.335 -66 -79.002 -66c-26 0 -45.333 4.83301 -58 14.5s-19 27 -19 52s5.83301 43.667 17.5 56s32.834 18.5 63.501 18.5s50.834 -6 60.501 -18s14.5 -31 14.5 -57z" />
    <glyph glyph-name="k" unicode="k" horiz-adv-x="588" 
d="M223 780l0.000976562 -484.998l134 137c21.333 21.333 39.666 35.5 54.999 42.5s35 10.5 59 10.5h57v-81h-24c-22 0 -39.333 -5.33301 -52 -16l-24 -21l-83 -74v-7l106 -145c26.667 -36 55 -54 85 -54c18.667 0 33.667 2.33301 45 7l-16 -88c-26 -10.667 -54 -16 -84 -16
c-41.333 0 -78.333 23 -111 69l-147 209v-159c0 -9.33301 1.5 -16 4.5 -20s8.83301 -6.66699 17.5 -8l43 -7v-74h-258v74l51 7c14.667 1.33301 22 10.666 22 27.999v563c0 17.333 -7.33301 26.666 -22 27.999l-51 6v74h193z" />
    <glyph glyph-name="l" unicode="l" horiz-adv-x="321" 
d="M223 780v-670.999c0 -17.333 7.33301 -26.666 22 -27.999l51 -7v-74h-266v74l51 7c14.667 1.33301 22 10.666 22 27.999v563c0 17.333 -7.33301 26.666 -22 27.999l-51 6v74h193z" />
    <glyph glyph-name="m" unicode="m" horiz-adv-x="914" 
d="M518 344l0.00195312 -235.001c0 -17.333 7.33301 -26.666 22 -27.999l51 -7v-74h-193v318c0 53.333 -22.333 80 -67 80c-40.667 0 -76.667 -15.667 -108 -47v-242c0 -17.333 7.33301 -26.666 22 -27.999l51 -7v-74h-266v74l51 7c14.667 1.33301 22 10.666 22 27.999v267
c0 17.333 -7.33301 26.666 -22 27.999l-51 7v74h169l8 -67c19.333 21.333 42.666 39.5 69.999 54.5s55.666 22.5 84.999 22.5c74 0 121.667 -26.667 143 -80c46.667 53.333 97.167 80 151.5 80s95 -12.833 122 -38.5s40.5 -62.5 40.5 -110.5v-237
c0 -17.333 7.33301 -26.666 22 -27.999l51 -7v-74h-193v318c0 53.333 -22.5 80 -67.5 80s-82.833 -18 -113.5 -54z" />
    <glyph glyph-name="n" unicode="n" horiz-adv-x="627" 
d="M605 0h-192.999v318c0 26 -7.16699 45.833 -21.5 59.5s-34.166 20.5 -59.499 20.5c-40.667 0 -76.667 -15.667 -108 -47v-242c0 -17.333 7.33301 -26.666 22 -27.999l51 -7v-74h-266v74l51 7c14.667 1.33301 22 10.666 22 27.999v267
c0 17.333 -7.33301 26.666 -22 27.999l-51 7v74h169l8 -67c19.333 21.333 42.666 39.5 69.999 54.5s55.666 22.5 84.999 22.5c58.667 0 101.667 -14.333 129 -43s41 -64 41 -106v-237c0 -17.333 7.33301 -26.666 22 -27.999l51 -7v-74z" />
    <glyph glyph-name="o" unicode="o" horiz-adv-x="563" 
d="M529 242c0 -62.667 -20.002 -119.333 -60.002 -170c-20 -24.667 -47.667 -44.5 -83 -59.5s-75.666 -22.5 -120.999 -22.5c-79.333 0 -137.666 22.667 -174.999 68s-56 106.666 -56 183.999c0 62.667 20 119.334 60 170.001c20 25.333 47.5 45.5 82.5 60.5
s75.167 22.5 120.5 22.5c80 0 138.667 -22.667 176 -68s56 -107 56 -185zM367.498 363.501c-22.333 28.333 -52.5 42.501 -90.5 42.501s-65 -8 -81 -24c-11.333 -10.667 -19.833 -30.167 -25.5 -58.5s-8.5 -56.833 -8.5 -85.5c0 -50 11 -89 33 -117s52 -42 90 -42
s65 8 81 24c11.333 10.667 20 30.167 26 58.5s9 56.833 9 85.5c0 49.333 -11.167 88.166 -33.5 116.499z" />
    <glyph glyph-name="p" unicode="p" horiz-adv-x="584" 
d="M218 348l-0.00195312 -237c30 -21.333 61.833 -32 95.5 -32s58.834 8.66699 75.501 26c22 23.333 33 71.333 33 144c0 104.667 -34.667 157 -104 157c-16.667 0 -35.667 -6.66699 -57 -20s-35.666 -26 -42.999 -38zM203.998 485l8.00098 -58.999c46 46 91 69 135 69
c63.333 0 113 -22 149 -66s54 -103.667 54 -179s-23.833 -137.5 -71.5 -186.5s-107.834 -73.5 -180.501 -73.5c-28 0 -54.667 5.66699 -80 17v-138c0 -17.333 7.33301 -26.666 22 -27.999l62 -7v-74h-277v74l51 7c14.667 1.33301 22 10.666 22 27.999v507
c0 17.333 -7.33301 26.666 -22 27.999l-51 7v74h179z" />
    <glyph glyph-name="q" unicode="q" horiz-adv-x="564" 
d="M367 133v256.003c-32.667 11.333 -63.5 17 -92.5 17s-51.333 -6 -67 -18s-27.167 -31.833 -34.5 -59.5s-11 -56.834 -11 -87.501c0 -54.667 9.83301 -95.334 29.5 -122.001s47.167 -40 82.5 -40c22.667 0 42.667 6.16699 60 18.5s28.333 24.166 33 35.499zM367 -130.997
v160.001c-40 -26 -83.667 -39 -131 -39c-59.333 0 -107.833 21.167 -145.5 63.5s-56.5 101.666 -56.5 177.999s22 139.333 66 189s105.333 74.5 184 74.5c24 0 59.667 -9 107 -27l96 17v-616c0 -17.333 7.33301 -26.666 22 -27.999l51 -7v-74h-277v74l62 7
c14.667 1.33301 22 10.666 22 27.999z" />
    <glyph glyph-name="r" unicode="r" horiz-adv-x="446" 
d="M199 485l9.99902 -75.999c12 20.667 31.5 40.167 58.5 58.5s55.333 27.5 85 27.5s57.834 -8 84.501 -24l-8 -138h-79l-11 62c-4 2.66699 -12.667 4 -26 4c-22 0 -42.5 -11.833 -61.5 -35.5s-28.5 -45.5 -28.5 -65.5v-189c0 -17.333 7.33301 -26.666 22 -27.999l64 -7v-74
h-279v74l51 7c14.667 1.33301 22 10.666 22 27.999v267c0 17.333 -7.33301 26.666 -22 27.999l-51 7v74h169z" />
    <glyph glyph-name="s" unicode="s" horiz-adv-x="456" 
d="M230 495c35.333 0 92.668 -10.668 172.001 -32.001l-6 -122h-79l-12 60c-22 9.33301 -49.333 14 -82 14c-42.667 0 -64 -15.667 -64 -47c0 -17.333 8.33301 -31.5 25 -42.5s47.667 -24 93 -39s80.666 -33 105.999 -54s38 -50.167 38 -87.5
c0 -47.333 -19.667 -85 -59 -113s-88.5 -42 -147.5 -42s-117.833 12 -176.5 36l9 125h81l9 -66c24.667 -9.33301 49.667 -14 75 -14s46.333 5 63 15s25 24.167 25 42.5s-8 32.333 -24 42s-42 20.834 -78 33.501c-59.333 19.333 -100.5 40.333 -123.5 63s-34.5 55 -34.5 97
s18 74.333 54 97s81.333 34 136 34z" />
    <glyph glyph-name="t" unicode="t" horiz-adv-x="356" 
d="M202 487l120.999 11.001v-93h-121v-205c0 -42.667 4.16699 -74 12.5 -94s24.833 -30 49.5 -30s51.334 3.33301 80.001 10l-11 -75c-26 -14 -64 -21 -114 -21c-46 0 -80.333 10.667 -103 32c-18 17.333 -28.667 48.666 -32 93.999c-1.33301 17.333 -2 40.333 -2 69v220
h-59v70l59 8v79l120 27v-102z" />
    <glyph glyph-name="u" unicode="u" horiz-adv-x="607" 
d="M389 143v233.001c0 17.333 -7.33301 26.666 -22 27.999l-51 7v74h193v-376c0 -17.333 7.33301 -26.666 22 -27.999l51 -7v-74h-169l-8 67c-16.667 -19.333 -38.334 -37 -65.001 -53s-54.667 -24 -84 -24c-54.667 0 -96.667 12.833 -126 38.5s-44 62.167 -44 109.5v238
c0 17.333 -7.33301 26.666 -22 27.999l-51 7v74h193v-317c0 -56 24.333 -84 73 -84c24.667 0 48.334 7.66699 71.001 23s35.667 27.333 39 36z" />
    <glyph glyph-name="v" unicode="v" horiz-adv-x="554" 
d="M292 157l75 211c4 10.667 6 18.334 6 23.001c0 8.66699 -4.66699 13.667 -14 15l-43 6v73h235v-73l-41 -6c-10.667 -1.33301 -19.334 -7.33301 -26.001 -18c-2 -4 -4.66699 -10.667 -8 -20l-139 -368h-114l-147 368c-5.33301 14.667 -10.666 24.5 -15.999 29.5
s-11.333 7.83301 -18 8.5l-41 6v73h243v-73l-43 -6c-9.33301 -1.33301 -14 -6.33301 -14 -15c0 -4.66699 2 -12.334 6 -23.001l81 -211l9 -45z" />
    <glyph glyph-name="w" unicode="w" horiz-adv-x="774" 
d="M538 178l52 190c3.33301 12 5 20.333 5 25c0 6.66699 -4.33301 11 -13 13l-43 6v73h232v-73l-41 -6c-9.33301 -1.33301 -16.333 -4.83301 -21 -10.5s-9 -14.834 -13 -27.501l-117 -368h-116l-69 225l-9 42l-9 -42l-72 -225h-112l-116 368
c-4 12.667 -8.33301 21.834 -13 27.501s-11.667 9.16699 -21 10.5l-41 6v73h244v-73l-43 -6c-9.33301 -2 -14 -5.83301 -14 -11.5s2 -14.5 6 -26.5l53 -190l9 -45l9 45l73 251h109l73 -251l9 -45z" />
    <glyph glyph-name="x" unicode="x" horiz-adv-x="566" 
d="M329 214l133 162.001c9.33301 11.333 17 18.666 23 21.999s15.667 6.33301 29 9l28 5v73h-214v-72l23 -5c8.66699 -2 13 -4.83301 13 -8.5s-5.33301 -11.5 -16 -23.5l-105 -124zM237 376.001l234 -259.002c13.333 -15.333 22.666 -25.166 27.999 -29.499
s12.333 -7.16602 21 -8.49902l30 -5v-74h-237v73l23 5c7.33301 2 11 5.5 11 10.5s-6 14.833 -18 29.5l-232 258c-11.333 12.667 -19.166 20.5 -23.499 23.5s-11.5 5.5 -21.5 7.5l-28 5v73h231v-72l-23 -5c-8 -2 -12 -4.66699 -12 -8s5.66699 -11.333 17 -24zM212 259.999
l79.998 -42.999l-81 -99c-12 -15.333 -18 -25.333 -18 -30s3 -8 9 -10l23 -5v-73h-209v74l30 6c10.667 2.66699 18.834 6.16699 24.501 10.5s13.834 13.166 24.501 26.499z" />
    <glyph glyph-name="y" unicode="y" horiz-adv-x="564" 
d="M486 368l-187.002 -487.999c-33.333 -86.667 -88.666 -130 -165.999 -130c-41.333 0 -76.333 5.33301 -105 16l-13 88c31.333 -7.33301 61.666 -11 90.999 -11c47.333 0 81.666 29 102.999 87l17 49l-149 389c-5.33301 14.667 -10.666 24.5 -15.999 29.5
s-11.333 7.83301 -18 8.5l-41 6v73h247v-73l-44 -6c-9.33301 -2 -14 -6.33301 -14 -13c0 -4.66699 2.33301 -13 7 -25l92 -253l88 253c4.66699 12.667 7 22 7 28s-4.33301 9.33301 -13 10l-44 6v73h234v-73l-41 -6c-9.33301 -1.33301 -16.166 -4.83301 -20.499 -10.5
s-9.16602 -14.834 -14.499 -27.501z" />
    <glyph glyph-name="z" unicode="z" horiz-adv-x="513" 
d="M316 401h-164c-17.333 0 -26.666 -7.33301 -27.999 -22l-8 -58h-74l-7 164h434v-66l-288 -333h183c17.333 0 26.666 7.33301 27.999 22l8 62h74l7 -170h-453v68z" />
    <glyph glyph-name="braceleft" unicode="{" horiz-adv-x="392" 
d="M52 232v74c48.667 0 73 47 73 141v221c0 31.333 10 57.833 30 79.5s47 32.5 81 32.5h103v-79h-37c-23.333 0 -38.833 -6.33301 -46.5 -19s-11.5 -32.667 -11.5 -60v-192c0 -40.667 -9.5 -77.667 -28.5 -111s-41.833 -50 -68.5 -50c26.667 0 49.5 -16.667 68.5 -50
s28.5 -70.333 28.5 -111v-192c0 -27.333 3.83301 -47.333 11.5 -60s23.167 -19 46.5 -19h37v-79h-103c-34 0 -61 10.833 -81 32.5s-30 48.167 -30 79.5v221c0 94 -24.333 141 -73 141z" />
    <glyph glyph-name="bar" unicode="|" horiz-adv-x="305" 
d="M100 792h105v-1032h-105v1032z" />
    <glyph glyph-name="braceright" unicode="}" horiz-adv-x="392" 
d="M340 306v-74c-48.667 0 -73 -47 -73 -141v-221c0 -31.333 -10 -57.833 -30 -79.5s-47 -32.5 -81 -32.5h-103v79h37c23.333 0 38.833 6.33301 46.5 19s11.5 32.667 11.5 60v192c0 40.667 9.5 77.667 28.5 111s41.833 50 68.5 50c-26.667 0 -49.5 16.667 -68.5 50
s-28.5 70.333 -28.5 111v192c0 27.333 -3.83301 47.333 -11.5 60s-23.167 19 -46.5 19h-37v79h103c34 0 61 -10.833 81 -32.5s30 -48.167 30 -79.5v-221c0 -94 24.333 -141 73 -141z" />
    <glyph glyph-name="asciitilde" unicode="~" horiz-adv-x="570" 
d="M103 196l-19.002 -10l-18 69c58 52 105.333 78 142 78c22.667 0 53.167 -9.33301 91.5 -28s67.5 -28 87.5 -28s53 12.667 99 38l17 -69c-18 -18.667 -39 -35.167 -63 -49.5s-46.667 -21.5 -68 -21.5s-51.666 9.33301 -90.999 28s-68.666 28 -87.999 28
s-49.333 -11.667 -90 -35z" />
    <glyph glyph-name="exclamdown" unicode="&#xa1;" horiz-adv-x="326" 
d="M92 -240l21 523h96l22 -523h-139zM241 424c0 -26 -4.83105 -45 -14.498 -57s-29.834 -18 -60.501 -18s-51.834 6.16699 -63.501 18.5s-17.5 31 -17.5 56s6.33301 42.333 19 52s32 14.5 58 14.5c52.667 0 79 -22 79 -66z" />
    <glyph glyph-name="cent" unicode="&#xa2;" horiz-adv-x="489" 
d="M434 209l16 -74.001c-2.66699 -0.666992 -11.834 -4.16699 -27.501 -10.5l-36.5 -14.5c-27.333 -9.33301 -55 -15.333 -83 -18l6 -130h-111l6 133c-113.333 19.333 -170 95.666 -170 228.999c0 62.667 14.833 116.334 44.5 161.001s70.5 74.334 122.5 89.001l-6 137h111
l-6 -127c56.667 -4 104.334 -17.667 143.001 -41l-9 -133h-79l-17 73c-17.333 8.66699 -43.333 13 -78 13s-57.667 -8 -69 -24c-19.333 -27.333 -29 -75.333 -29 -144c0 -44 9.83301 -79.833 29.5 -107.5s47 -41.5 82 -41.5s88.5 10 160.5 30z" />
    <glyph glyph-name="sterling" unicode="&#xa3;" horiz-adv-x="606" 
d="M269 272l1.00098 -67c0 -47.333 -19.333 -87 -58 -119c24 17.333 44.5 26 61.5 26s41.167 -3.16699 72.5 -9.5s54 -9.5 68 -9.5s24.5 3 31.5 9s10.5 13.667 10.5 23v44h86l12 -165c-15.333 -9.33301 -52.333 -14 -111 -14c-22 0 -59.333 3.16699 -112 9.5
s-94 9.5 -124 9.5s-68.667 -7.66699 -116 -23l-41 88c17.333 2.66699 38 12 62 28c22.667 9.33301 34 31.333 34 66c0 16 -2 50.667 -6 104h-81v85h75c-3.33301 42 -5 78.667 -5 110s6 62.5 18 93.5s26.5 54.833 43.5 71.5s36.833 30 59.5 40c36.667 16.667 75 25 115 25
c64 0 115 -14.667 153 -44l-53 -113c-42.667 32 -87.334 48 -134.001 48c-24 0 -42.167 -6.5 -54.5 -19.5s-18.5 -29.5 -18.5 -49.5c0 -39.333 2.33301 -93.333 7 -162h153l-25 -85h-124z" />
    <glyph glyph-name="currency" unicode="&#xa4;" horiz-adv-x="547" 
d="M427 418l93 102l-86 72l-85 -109zM470 324c0 -55.333 -18.5 -100.5 -55.5 -135.5s-84.5 -52.5 -142.5 -52.5s-105.5 17.5 -142.5 52.5s-55.5 80.167 -55.5 135.5s18.5 100.5 55.5 135.5s84.5 52.5 142.5 52.5s105.5 -17.5 142.5 -52.5s55.5 -80.167 55.5 -135.5zM359 324
c0 30 -7.66699 53.5 -23 70.5s-36.666 25.5 -63.999 25.5s-48.666 -8.5 -63.999 -25.5s-23 -40.5 -23 -70.5s7.66699 -53.5 23 -70.5s36.666 -25.5 63.999 -25.5s48.666 8.5 63.999 25.5s23 40.5 23 70.5zM198 483l-85 109l-86 -72l93 -102zM349 163l78 65l93 -102l-86 -72z
M120 228l78 -65l-85 -109l-86 72z" />
    <glyph glyph-name="yen" unicode="&#xa5;" horiz-adv-x="700" 
d="M604 554l-192 -286.003v-23h107l-15 -90h-92v-29c0 -13.333 1.83301 -22.5 5.5 -27.5s11.5 -8.5 23.5 -10.5l52 -9v-79h-289v79l52 9c12 2 19.833 5.5 23.5 10.5s5.5 14.167 5.5 27.5v29h-107l15 90h92v23l-189 286c-8 15.333 -15.333 25.833 -22 31.5
s-16 9.16699 -28 10.5l-44 5v79h297v-78l-35 -6c-22 -3.33301 -33 -9.66602 -33 -18.999c0 -3.33301 3 -11 9 -23l116 -174l121 174c4.66699 8.66699 7 15.834 7 21.501s-2.5 9.83398 -7.5 12.501s-14.167 5 -27.5 7l-35 6v79h284v-79l-44 -5
c-14 -2.66699 -23.667 -6.5 -29 -11.5s-12.333 -15.167 -21 -30.5z" />
    <glyph glyph-name="brokenbar" unicode="&#xa6;" horiz-adv-x="300" 
d="M93 790h114v-387h-114v387zM93 147h114v-387h-114v387z" />
    <glyph glyph-name="section" unicode="&#xa7;" horiz-adv-x="518" 
d="M131 31l8.99902 -78.0039c42 -16 77.167 -24 105.5 -24s51.333 6.33301 69 19s26.5 28.834 26.5 48.501s-5 35.667 -15 48s-28.333 23.833 -55 34.5l-102 43c-42.667 18.667 -74.167 40.334 -94.5 65.001s-30.5 54.834 -30.5 90.501s5 61.5 15 77.5s30.667 37.333 62 64
c-46.667 36 -70 86 -70 150c0 48.667 18.167 87.667 54.5 117s86 44 149 44s128.5 -7.66699 196.5 -23l-13 -142h-85l-12 67c-27.333 7.33301 -57.333 11 -90 11c-49.333 0 -74 -21.333 -74 -64c0 -22.667 5.33301 -41 16 -55s29.334 -26 56.001 -36l85 -32l42 -17
c10 -4 23.333 -11.167 40 -21.5s29.334 -20.833 38.001 -31.5c23.333 -27.333 35 -58.166 35 -92.499s-6 -61.833 -18 -82.5s-33.667 -43 -65 -67c40.667 -30.667 61 -76.667 61 -138c0 -50 -21.5 -90.5 -64.5 -121.5s-100.333 -46.5 -172 -46.5
s-138.834 15.333 -201.501 46l15 147h87zM202.999 376.996c-22 -22.667 -33 -45.333 -33 -68s4.83301 -40.334 14.5 -53.001s26.5 -23.667 50.5 -33l72 -29l16 -7c26.667 24.667 40 52.334 40 83.001c0 18 -5.66699 32.5 -17 43.5s-30.333 21.5 -57 31.5z" />
    <glyph glyph-name="dieresis" unicode="&#xa8;" horiz-adv-x="547" 
d="M224 681.5c8 -11 12 -28.001 12 -51.001s-5.83301 -39.333 -17.5 -49s-29.5 -14.5 -53.5 -14.5s-41.667 4.33301 -53 13s-17 24.834 -17 48.501s5.16699 41.167 15.5 52.5s29.833 17 58.5 17s47 -5.5 55 -16.5zM439 681.499c8 -11 12 -28.001 12 -51.001
s-5.83301 -39.333 -17.5 -49s-29.5 -14.5 -53.5 -14.5s-41.667 4.33301 -53 13s-17 24.834 -17 48.501s5.16699 41.167 15.5 52.5s29.833 17 58.5 17s47 -5.5 55 -16.5z" />
    <glyph glyph-name="copyright" unicode="&#xa9;" horiz-adv-x="832" 
d="M147.5 99.5c-74.333 73 -111.5 161.5 -111.5 265.5s37.167 194.167 111.5 270.5s163.833 114.5 268.5 114.5s194.167 -38.167 268.5 -114.5s111.5 -166.5 111.5 -270.5s-37.167 -192.5 -111.5 -265.5s-163.833 -109.5 -268.5 -109.5s-194.167 36.5 -268.5 109.5zM205 585
c-59.333 -63.333 -88.998 -136.666 -88.998 -219.999s29.667 -155 89 -215s129.666 -90 210.999 -90s151.666 30 210.999 90s89 131.667 89 215s-29.833 156.666 -89.5 219.999s-130 95 -211 95s-151.167 -31.667 -210.5 -95zM565.002 190
c-50.667 -25.333 -104.332 -38 -160.999 -38s-101.334 17 -134.001 51s-49 83.833 -49 149.5s18.333 119.334 55 161.001s84.667 62.5 144 62.5s107.333 -12 144 -36l-7 -112h-67l-13 58c-18 6.66699 -40.333 10 -67 10s-44 -5 -52 -15
c-16 -22.667 -24 -64.334 -24 -125.001c0 -36.667 7.66699 -66.5 23 -89.5s37 -34.5 65 -34.5s71.333 8.33301 130 25z" />
    <glyph glyph-name="ordfeminine" unicode="&#xaa;" horiz-adv-x="331" 
d="M34 290v81h267v-81h-267zM270 648l0.000976562 -137.001c0 -8 0.833008 -13.5 2.5 -16.5s5.5 -4.83301 11.5 -5.5l27 -4v-52h-111l-4 42c-26.667 -32 -54.5 -48 -83.5 -48s-51.667 7.5 -68 22.5s-24.5 34.833 -24.5 59.5s8.16699 44.834 24.5 60.501
s39.166 25.5 68.499 29.5l79 14v29c0 19.333 -15.667 29 -47 29c-12.667 0 -29.667 -2.66699 -51 -8l-8 -38h-47l-8 84c44 14 83.5 21 118.5 21s63.833 -6.66699 86.5 -20s34 -34 34 -62zM192.001 561.999l-65 -12c-18 -3.33301 -27 -13.833 -27 -31.5s8.5 -26.5 25.5 -26.5
s39.167 12.667 66.5 38v32z" />
    <glyph glyph-name="guillemotleft" unicode="&#xab;" horiz-adv-x="536" 
d="M209 39l-169.999 202.999l170 203c4 -4.66699 10.333 -11 19 -19c17.333 -14.667 26 -27.167 26 -37.5s-2.66699 -19.833 -8 -28.5l-74 -118l74 -118c5.33301 -7.33301 8 -15.5 8 -24.5s-1.83301 -16.333 -5.5 -22s-10.834 -13.167 -21.501 -22.5
s-16.667 -14.666 -18 -15.999zM427.001 38.999l-169.999 202.999l170 203c4 -4.66699 10.333 -11 19 -19c17.333 -14.667 26 -27.167 26 -37.5s-2.66699 -19.833 -8 -28.5l-74 -118l74 -118c5.33301 -7.33301 8 -15.5 8 -24.5s-1.83301 -16.333 -5.5 -22
s-10.834 -13.167 -21.501 -22.5s-16.667 -14.666 -18 -15.999z" />
    <glyph glyph-name="logicalnot" unicode="&#xac;" horiz-adv-x="533" 
d="M495 121h-89v144h-368v99h457v-243z" />
    <glyph glyph-name="registered" unicode="&#xae;" horiz-adv-x="515" 
d="M232 648l-0.000976562 -65h22c10.667 0 18.334 2.66699 23.001 8s7 15 7 29c0 18.667 -11.333 28 -34 28h-18zM231.999 549l0.000976562 -56.001c0 -4.66699 0.333008 -7.66699 1 -9s3.33398 -2.33301 8.00098 -3l17 -2v-28h-96v28l16 2c6 0.666992 9 4.66699 9 12v146
c0 6 -3 10 -9 12l-16 3v27h94c50.667 0 76 -19 76 -57c0 -22.667 -5.33301 -39.167 -16 -49.5s-22 -16.166 -34 -17.499c7.33301 -2 12.666 -5.66699 15.999 -11l28 -46c6.66699 -12 14.667 -18 24 -18c1.33301 0 4 0.166992 8 0.5s6.33301 0.5 7 0.5l-3 -28
c-6.66699 -4.66699 -17.834 -7 -33.501 -7s-29.5 9 -41.5 27l-37 64c-4 6.66699 -8.66699 10 -14 10h-4zM111.5 418.499c-39.667 39.667 -59.5 88.334 -59.5 146.001s19.833 106.334 59.5 146.001s88.334 59.5 146.001 59.5s106.334 -19.833 146.001 -59.5
s59.5 -88.334 59.5 -146.001s-19.833 -106.334 -59.5 -146.001s-88.334 -59.5 -146.001 -59.5s-106.334 19.833 -146.001 59.5zM100 563.999c0 -45.333 15.333 -83.833 46 -115.5s67.834 -47.5 111.501 -47.5s81 15.833 112 47.5s46.5 70.167 46.5 115.5s-15.5 84 -46.5 116
s-68.333 48 -112 48s-80.834 -16 -111.501 -48s-46 -70.667 -46 -116z" />
    <glyph glyph-name="macron" unicode="&#xaf;" horiz-adv-x="376" 
d="M48 602l15 97h282l-15 -97h-282z" />
    <glyph glyph-name="degree" unicode="&#xb0;" horiz-adv-x="326" 
d="M320 586c0 -44 -14.667 -79.833 -44 -107.5s-67 -41.5 -113 -41.5s-83.667 13.833 -113 41.5s-44 63.5 -44 107.5s14.667 79.833 44 107.5s67 41.5 113 41.5s83.667 -13.833 113 -41.5s44 -63.5 44 -107.5zM232 586c0 24 -6 42.667 -18 56s-29 20 -51 20
s-39 -6.66699 -51 -20s-18 -32 -18 -56s6 -42.667 18 -56s29 -20 51 -20s39 6.66699 51 20s18 32 18 56z" />
    <glyph glyph-name="plusminus" unicode="&#xb1;" horiz-adv-x="528" 
d="M43 0v104h442v-104h-442zM315 154h-108v151h-164v104h164v148h108v-148h170v-104h-170v-151z" />
    <glyph glyph-name="twosuperior" unicode="&#xb2;" horiz-adv-x="365" 
d="M342 359l0.00195312 -79.999h-319v14c0 48.667 9 85.667 27 111c20.667 29.333 56 60 106 92c35.333 21.333 58.666 39.666 69.999 54.999c11.333 16 17 32.333 17 49c0 38.667 -20.667 58 -62 58c-24 0 -47.667 -4.66699 -71 -14l-14 -60h-61l-6 114
c58.667 21.333 113 32 163 32s87.5 -11.167 112.5 -33.5s37.5 -52.166 37.5 -89.499c0 -40.667 -13.333 -74.334 -40 -101.001s-62.667 -54 -108 -82c-28.667 -17.333 -45.334 -32.333 -50.001 -45c-2.66699 -6 -4 -12.667 -4 -20h202z" />
    <glyph glyph-name="threesuperior" unicode="&#xb3;" horiz-adv-x="370" 
d="M103 473l-4.00098 56.999c84.667 16.667 127 47.334 127 92.001c0 11.333 -4.66699 20.5 -14 27.5s-23.833 10.5 -43.5 10.5s-38.167 -2.66699 -55.5 -8l-9 -45h-61l-6 103c58 13.333 109.5 20 154.5 20s78.5 -9.33301 100.5 -28s33 -41 33 -67
c0 -56.667 -34 -97 -102 -121c40 -7.33301 69.5 -18.666 88.5 -33.999s28.5 -41.333 28.5 -78s-16 -68.5 -48 -95.5s-73.167 -40.5 -123.5 -40.5s-100.5 10.667 -150.5 32l19 63c50 -16.667 88.833 -25 116.5 -25s48.334 6.66699 62.001 20s20.5 28.666 20.5 45.999
c0 38 -22.333 59.667 -67 65z" />
    <glyph glyph-name="acute" unicode="&#xb4;" horiz-adv-x="285" 
d="M171 767l74 -77l-128 -112c-10 -9.33301 -22.833 -14 -38.5 -14s-34.5 11 -56.5 33z" />
    <glyph glyph-name="paragraph" unicode="&#xb6;" horiz-adv-x="586" 
d="M253 -164v454c-87.333 0 -148.833 15.667 -184.5 47s-53.5 83.5 -53.5 156.5s17.167 129 51.5 168s96.5 58.5 186.5 58.5h107v-884h-107zM444 -164v884h107v-884h-107z" />
    <glyph glyph-name="periodcentered" unicode="&#xb7;" horiz-adv-x="251" 
d="M194 350.5c9.33301 -13 14 -33.168 14 -60.501s-6.83301 -46.666 -20.5 -57.999s-34.5 -17 -62.5 -17s-48.667 5.16699 -62 15.5s-20 29.5 -20 57.5s6 48.667 18 62s34.833 20 68.5 20s55.167 -6.5 64.5 -19.5z" />
    <glyph glyph-name="cedilla" unicode="&#xb8;" horiz-adv-x="322" 
d="M121 13l70.002 -11.999v-58l27 -9c21.333 -7.33301 35.666 -16 42.999 -26s11 -24 11 -42c0 -32 -11.833 -56.833 -35.5 -74.5s-50.834 -26.5 -81.501 -26.5s-62 7 -94 21l17 49c23.333 -9.33301 47.333 -14 72 -14c22.667 0 34 12.667 34 38
c0 15.333 -10 25.666 -30 30.999l-57 13z" />
    <glyph glyph-name="onesuperior" unicode="&#xb9;" horiz-adv-x="327" 
d="M217 724l-0.000976562 -345c0 -12.667 1.33301 -21.5 4 -26.5s8.33398 -7.83301 17.001 -8.5l55 -6v-63h-244v63l53 6c9.33301 0.666992 15.333 3.5 18 8.5s4 13.833 4 26.5v248l-81 -34v80l104 51h70z" />
    <glyph glyph-name="ordmasculine" unicode="&#xba;" horiz-adv-x="347" 
d="M40 290v81h267v-81h-267zM329 573c0 -41.333 -13.667 -77.667 -41 -109s-69 -47 -125 -47c-96.667 0 -145 52 -145 156c0 42 13.667 78.667 41 110s69 47 125 47c96.667 0 145 -52.333 145 -157zM168 659.999c-21.333 0 -36 -5.33203 -44 -15.999
c-12 -12 -18 -36.333 -18 -73c0 -56 24.333 -84 73 -84c21.333 0 36 5 44 15c12 11.333 18 35.666 18 72.999c0 56.667 -24.333 85 -73 85z" />
    <glyph glyph-name="guillemotright" unicode="&#xbb;" horiz-adv-x="536" 
d="M497 242l-170 -203.001c-3.33301 3.33301 -8.33301 7.83301 -15 13.5s-11.667 10.167 -15 13.5c-10 11.333 -15 22 -15 32s2.66699 18.667 8 26l74 118l-74 118c-5.33301 8.66699 -8 17 -8 25s2.16699 15 6.5 21s10.833 12.833 19.5 20.5s15 13.834 19 18.501z
M279 241.999l-170 -203.001c-3.33301 3.33301 -8.33301 7.83301 -15 13.5s-11.667 10.167 -15 13.5c-10 11.333 -15 22 -15 32s2.66699 18.667 8 26l74 118l-74 118c-5.33301 8.66699 -8 17 -8 25s2.16699 15 6.5 21s10.833 12.833 19.5 20.5s15 13.834 19 18.501z" />
    <glyph glyph-name="onequarter" unicode="&#xbc;" horiz-adv-x="897" 
d="M217 379c0 -12.667 1.33203 -21.5 3.99902 -26.5s8.33398 -7.83301 17.001 -8.5l55 -6v-63h-244v63l53 6c9.33301 0.666992 15.333 3.5 18 8.5s4 13.833 4 26.5v248l-81 -34v80l104 51h70v-345zM625.999 730h98l-421 -730h-98zM866.999 97h-66v-100h-93v100h-207l-27 54
l218 300l62 -49l-156 -230h110v107h93v-107h66v-75z" />
    <glyph glyph-name="onehalf" unicode="&#xbd;" horiz-adv-x="962" 
d="M217 379c0 -12.667 1.33203 -21.5 3.99902 -26.5s8.33398 -7.83301 17.001 -8.5l55 -6v-63h-244v63l53 6c9.33301 0.666992 15.333 3.5 18 8.5s4 13.833 4 26.5v248l-81 -34v80l104 51h70v-345zM625.999 730h98l-421 -730h-98zM916.999 0l-319.003 -0.00292969v14
c0 34 5.5 63.5 16.5 88.5s23 43.5 36 55.5s26.167 22.333 39.5 31l46 30c17.333 11.333 28.333 19 33 23l23 20c17.333 16.667 26 36.334 26 59.001c0 38.667 -20.667 58 -62 58c-24 0 -47.667 -4.66699 -71 -14l-14 -60h-61l-6 114c58.667 21.333 113 32 163 32
s87.5 -11.167 112.5 -33.5s37.5 -53 37.5 -92s-13.333 -71.833 -40 -98.5c-14 -14 -26.667 -25.333 -38 -34s-23.166 -17.167 -35.499 -25.5s-23.666 -15.666 -33.999 -21.999s-17.666 -11.166 -21.999 -14.499s-10.833 -8.83301 -19.5 -16.5s-13 -19.167 -13 -34.5h202v-80
z" />
    <glyph glyph-name="threequarters" unicode="&#xbe;" horiz-adv-x="919" 
d="M121 473l-4.00098 56.999c84.667 16.667 127 47.334 127 92.001c0 11.333 -4.66699 20.5 -14 27.5s-23.833 10.5 -43.5 10.5s-38.167 -2.66699 -55.5 -8l-9 -45h-61l-6 103c58 13.333 109.5 20 154.5 20s78.5 -9.33301 100.5 -28s33 -41 33 -67
c0 -56.667 -34 -97 -102 -121c40 -7.33301 69.5 -18.666 88.5 -33.999s28.5 -41.333 28.5 -78s-16 -68.5 -48 -95.5s-73.167 -40.5 -123.5 -40.5s-100.5 10.667 -150.5 32l19 63c50 -16.667 88.833 -25 116.5 -25s48.334 6.66699 62.001 20s20.5 28.666 20.5 45.999
c0 38 -22.333 59.667 -67 65zM647.999 729.999h98l-421 -730h-98zM888.999 171.999v-75h-66v-100h-93v100h-207l-27 54l218 300l62 -49l-156 -230h110v107h93v-107h66z" />
    <glyph glyph-name="questiondown" unicode="&#xbf;" horiz-adv-x="442" 
d="M129 -92c0 -49.333 26.998 -74.0059 80.998 -74.0059c29.333 0 59.666 7 90.999 21l10 64h84l11 -137c-66.667 -21.333 -133.167 -32 -199.5 -32s-116.166 14.667 -149.499 44s-50 65.5 -50 108.5s7.16699 78.833 21.5 107.5s31.833 50.834 52.5 66.501
s41.334 29.834 62.001 42.501s38.834 26.834 54.501 42.501s24.167 33.834 25.5 54.501l5 65l96 7c0 -0.666992 1.66699 -14.167 5 -40.5s5 -50.166 5 -71.499c0 -33.333 -17.667 -61.666 -53 -84.999l-49.5 -33.5c-17.667 -12.333 -34.167 -24.5 -49.5 -36.5
s-28 -27.833 -38 -47.5s-15 -41.5 -15 -65.5zM193.998 428.994c0 44 26.335 66 79.002 66c26 0 45.333 -4.83301 58 -14.5s19 -27 19 -52s-5.83301 -43.667 -17.5 -56s-32.834 -18.5 -63.501 -18.5s-50.834 6 -60.501 18s-14.5 31 -14.5 57z" />
    <glyph glyph-name="Agrave" unicode="&#xc0;" 
d="M82 132l208 588h119l212 -588c6 -17.333 12 -28.666 18 -33.999s16 -9.33301 30 -12l34 -7v-79h-289v77l50 9c18 2.66699 27 9.66699 27 21c0 4 -1.66699 11.667 -5 23l-31 88h-224l-28 -85c-3.33301 -10 -5 -17.667 -5 -23c0 -13.333 9.33301 -21.333 28 -24l49 -9v-77
h-273v79l33 7c13.333 2.66699 23 6.66699 29 12s12 16.666 18 33.999zM420 316l-67 192l-13 51l-10 -49l-66 -194h156zM186 859l63 86l171 -148c-19.333 -28 -40 -42 -62 -42c-9.33301 0 -19.333 3.33301 -30 10z" />
    <glyph glyph-name="Aacute" unicode="&#xc1;" 
d="M82 132l208 588h119l212 -588c6 -17.333 12 -28.666 18 -33.999s16 -9.33301 30 -12l34 -7v-79h-289v77l50 9c18 2.66699 27 9.66699 27 21c0 4 -1.66699 11.667 -5 23l-31 88h-224l-28 -85c-3.33301 -10 -5 -17.667 -5 -23c0 -13.333 9.33301 -21.333 28 -24l49 -9v-77
h-273v79l33 7c13.333 2.66699 23 6.66699 29 12s12 16.666 18 33.999zM420 316l-67 192l-13 51l-10 -49l-66 -194h156zM448 944l63 -86l-142 -94c-10.667 -6.66699 -20.667 -10 -30 -10c-22 0 -42.667 14 -62 42z" />
    <glyph glyph-name="Acircumflex" unicode="&#xc2;" 
d="M82 132l208 588h119l212 -588c6 -17.333 12 -28.666 18 -33.999s16 -9.33301 30 -12l34 -7v-79h-289v77l50 9c18 2.66699 27 9.66699 27 21c0 4 -1.66699 11.667 -5 23l-31 88h-224l-28 -85c-3.33301 -10 -5 -17.667 -5 -23c0 -13.333 9.33301 -21.333 28 -24l49 -9v-77
h-273v79l33 7c13.333 2.66699 23 6.66699 29 12s12 16.666 18 33.999zM420 316l-67 192l-13 51l-10 -49l-66 -194h156zM296 918h109l118 -126l-59 -48l-114 98l-114 -98l-59 48z" />
    <glyph glyph-name="Atilde" unicode="&#xc3;" 
d="M82 132l208 588h119l212 -588c6 -17.333 12 -28.666 18 -33.999s16 -9.33301 30 -12l34 -7v-79h-289v77l50 9c18 2.66699 27 9.66699 27 21c0 4 -1.66699 11.667 -5 23l-31 88h-224l-28 -85c-3.33301 -10 -5 -17.667 -5 -23c0 -13.333 9.33301 -21.333 28 -24l49 -9v-77
h-273v79l33 7c13.333 2.66699 23 6.66699 29 12s12 16.666 18 33.999zM420 316l-67 192l-13 51l-10 -49l-66 -194h156zM343.5 778.5c-29.667 12.333 -53.5 18.5 -71.5 18.5s-40.667 -9 -68 -27l-24 60c30.667 46 65.334 69 104.001 69c20 0 44.667 -5.83301 74 -17.5
s52.666 -17.5 69.999 -17.5s37.333 8 60 24l24 -60c-28.667 -45.333 -61 -68 -97 -68c-18 0 -41.833 6.16699 -71.5 18.5z" />
    <glyph glyph-name="Adieresis" unicode="&#xc4;" 
d="M82 132l208 588h119l212 -588c6 -17.333 12 -28.666 18 -33.999s16 -9.33301 30 -12l34 -7v-79h-289v77l50 9c18 2.66699 27 9.66699 27 21c0 4 -1.66699 11.667 -5 23l-31 88h-224l-28 -85c-3.33301 -10 -5 -17.667 -5 -23c0 -13.333 9.33301 -21.333 28 -24l49 -9v-77
h-273v79l33 7c13.333 2.66699 23 6.66699 29 12s12 16.666 18 33.999zM420 316l-67 192l-13 51l-10 -49l-66 -194h156zM299 871.5c8 -11 12 -28.001 12 -51.001s-5.83301 -39.333 -17.5 -49s-29.5 -14.5 -53.5 -14.5s-41.667 4.33301 -53 13s-17 24.834 -17 48.501
s5.16699 41.167 15.5 52.5s29.833 17 58.5 17s47 -5.5 55 -16.5zM514 871.499c8 -11 12 -28.001 12 -51.001s-5.83301 -39.333 -17.5 -49s-29.5 -14.5 -53.5 -14.5s-41.667 4.33301 -53 13s-17 24.834 -17 48.501s5.16699 41.167 15.5 52.5s29.833 17 58.5 17
s47 -5.5 55 -16.5z" />
    <glyph glyph-name="Aring" unicode="&#xc5;" 
d="M82 132l208 588h119l212 -588c6 -17.333 12 -28.666 18 -33.999s16 -9.33301 30 -12l34 -7v-79h-289v77l50 9c18 2.66699 27 9.66699 27 21c0 4 -1.66699 11.667 -5 23l-31 88h-224l-28 -85c-3.33301 -10 -5 -17.667 -5 -23c0 -13.333 9.33301 -21.333 28 -24l49 -9v-77
h-273v79l33 7c13.333 2.66699 23 6.66699 29 12s12 16.666 18 33.999zM420 316l-67 192l-13 51l-10 -49l-66 -194h156zM460 850c0 -26.667 -10.5 -50.5 -31.5 -71.5s-48.333 -31.5 -82 -31.5s-60 10 -79 30s-28.5 43.333 -28.5 70s10.5 50.5 31.5 71.5s48.333 31.5 82 31.5
s60 -10 79 -30s28.5 -43.333 28.5 -70zM390 852c0 10.667 -4 19.167 -12 25.5s-17.667 9.5 -29 9.5c-26.667 0 -40 -14.333 -40 -43c0 -10.667 4 -19.167 12 -25.5s17.667 -9.5 29 -9.5c26.667 0 40 14.333 40 43z" />
    <glyph glyph-name="AE" unicode="&#xc6;" horiz-adv-x="946" 
d="M236 645v75.002h637l-7 -198h-89l-5 65c-0.666992 12 -4 19.833 -10 23.5s-15.333 5.5 -28 5.5h-162v-190h198v-104h-198v-218h182c12.667 0 22 1.83301 28 5.5s9.33301 11.5 10 23.5l6 75h87l7 -208h-525v80l49 9c12 1.33301 19.833 4.66602 23.5 9.99902
s5.5 14.666 5.5 27.999v195h-170l-71 -189c-3.33301 -8 -5 -15 -5 -21c0 -14 9.33301 -22.667 28 -26l49 -9v-77h-274v79l37 7c12.667 2 22 5.83301 28 11.5s12.333 17.167 19 34.5l197 509zM445 426.002v162.001c0 13.333 -1.83301 23.166 -5.5 29.499
s-11.5 9.83301 -23.5 10.5l-26 2l-76 -204h131z" />
    <glyph glyph-name="Ccedilla" unicode="&#xc7;" horiz-adv-x="663" 
d="M592 140l27 -89.001c-20 -10 -51.333 -21 -94 -33c-66.667 -18.667 -123.667 -28 -171 -28c-210 0 -315 120.667 -315 362c0 108 26.667 197.333 80 268c26.667 34.667 62.167 61.667 106.5 81s91.333 29 141 29s92 -3.5 127 -10.5s75.167 -22.5 120.5 -46.5l-16 -173
h-97l-21 105c-42 13.333 -87 20 -135 20s-85.667 -11.333 -113 -34c-16.667 -14 -30.167 -45.833 -40.5 -95.5s-15.5 -95.167 -15.5 -136.5c0 -81.333 16.667 -145.166 50 -191.499s83 -69.5 149 -69.5s138.333 14 217 42zM308 12.999l70.002 -11.999v-58l27 -9
c21.333 -7.33301 35.666 -16 42.999 -26s11 -24 11 -42c0 -32 -11.833 -56.833 -35.5 -74.5s-50.834 -26.5 -81.501 -26.5s-62 7 -94 21l17 49c23.333 -9.33301 47.333 -14 72 -14c22.667 0 34 12.667 34 38c0 15.333 -10 25.666 -30 30.999l-57 13z" />
    <glyph glyph-name="Egrave" unicode="&#xc8;" horiz-adv-x="633" 
d="M579 0h-530.999v80l48 9c12 2.66699 19.833 6.5 23.5 11.5s5.5 13.833 5.5 26.5v471c0 13.333 -1.83301 23 -5.5 29s-11.5 9.66699 -23.5 11l-48 6v76h527l-7 -198h-84l-7 65c-1.33301 12 -4.83301 19.833 -10.5 23.5s-14.834 5.5 -27.501 5.5h-187v-190h211v-104h-211
v-218h188c12.667 0 22 1.83301 28 5.5s9.33301 11.5 10 23.5l7 70h87zM176.001 859l63 86l171 -148c-19.333 -28 -40 -42 -62 -42c-9.33301 0 -19.333 3.33301 -30 10z" />
    <glyph glyph-name="Eacute" unicode="&#xc9;" horiz-adv-x="633" 
d="M579 0h-530.999v80l48 9c12 2.66699 19.833 6.5 23.5 11.5s5.5 13.833 5.5 26.5v471c0 13.333 -1.83301 23 -5.5 29s-11.5 9.66699 -23.5 11l-48 6v76h527l-7 -198h-84l-7 65c-1.33301 12 -4.83301 19.833 -10.5 23.5s-14.834 5.5 -27.501 5.5h-187v-190h211v-104h-211
v-218h188c12.667 0 22 1.83301 28 5.5s9.33301 11.5 10 23.5l7 70h87zM438.001 944l63 -86l-142 -94c-10.667 -6.66699 -20.667 -10 -30 -10c-22 0 -42.667 14 -62 42z" />
    <glyph glyph-name="Ecircumflex" unicode="&#xca;" horiz-adv-x="633" 
d="M579 0h-530.999v80l48 9c12 2.66699 19.833 6.5 23.5 11.5s5.5 13.833 5.5 26.5v471c0 13.333 -1.83301 23 -5.5 29s-11.5 9.66699 -23.5 11l-48 6v76h527l-7 -198h-84l-7 65c-1.33301 12 -4.83301 19.833 -10.5 23.5s-14.834 5.5 -27.501 5.5h-187v-190h211v-104h-211
v-218h188c12.667 0 22 1.83301 28 5.5s9.33301 11.5 10 23.5l7 70h87zM286.001 918h109l118 -126l-59 -48l-114 98l-114 -98l-59 48z" />
    <glyph glyph-name="Edieresis" unicode="&#xcb;" horiz-adv-x="633" 
d="M579 0h-530.999v80l48 9c12 2.66699 19.833 6.5 23.5 11.5s5.5 13.833 5.5 26.5v471c0 13.333 -1.83301 23 -5.5 29s-11.5 9.66699 -23.5 11l-48 6v76h527l-7 -198h-84l-7 65c-1.33301 12 -4.83301 19.833 -10.5 23.5s-14.834 5.5 -27.501 5.5h-187v-190h211v-104h-211
v-218h188c12.667 0 22 1.83301 28 5.5s9.33301 11.5 10 23.5l7 70h87zM291.001 871.5c8 -11 12 -28.001 12 -51.001s-5.83301 -39.333 -17.5 -49s-29.5 -14.5 -53.5 -14.5s-41.667 4.33301 -53 13s-17 24.834 -17 48.501s5.16699 41.167 15.5 52.5s29.833 17 58.5 17
s47 -5.5 55 -16.5zM506.001 871.499c8 -11 12 -28.001 12 -51.001s-5.83301 -39.333 -17.5 -49s-29.5 -14.5 -53.5 -14.5s-41.667 4.33301 -53 13s-17 24.834 -17 48.501s5.16699 41.167 15.5 52.5s29.833 17 58.5 17s47 -5.5 55 -16.5z" />
    <glyph glyph-name="Igrave" unicode="&#xcc;" horiz-adv-x="377" 
d="M329 79v-79h-281v79l48 9c12 2.66699 19.833 6.5 23.5 11.5s5.5 13.833 5.5 26.5v468c0 12.667 -1.83301 21.5 -5.5 26.5s-11.5 8.83301 -23.5 11.5l-48 9v79h281v-79l-48 -9c-12 -2.66699 -19.833 -6.5 -23.5 -11.5s-5.5 -13.833 -5.5 -26.5v-468
c0 -12.667 1.83301 -21.5 5.5 -26.5s11.5 -8.83301 23.5 -11.5zM24 859l63 86l171 -148c-19.333 -28 -40 -42 -62 -42c-9.33301 0 -19.333 3.33301 -30 10z" />
    <glyph glyph-name="Iacute" unicode="&#xcd;" horiz-adv-x="377" 
d="M329 79v-79h-281v79l48 9c12 2.66699 19.833 6.5 23.5 11.5s5.5 13.833 5.5 26.5v468c0 12.667 -1.83301 21.5 -5.5 26.5s-11.5 8.83301 -23.5 11.5l-48 9v79h281v-79l-48 -9c-12 -2.66699 -19.833 -6.5 -23.5 -11.5s-5.5 -13.833 -5.5 -26.5v-468
c0 -12.667 1.83301 -21.5 5.5 -26.5s11.5 -8.83301 23.5 -11.5zM286 944l63 -86l-142 -94c-10.667 -6.66699 -20.667 -10 -30 -10c-22 0 -42.667 14 -62 42z" />
    <glyph glyph-name="Icircumflex" unicode="&#xce;" horiz-adv-x="377" 
d="M329 79v-79h-281v79l48 9c12 2.66699 19.833 6.5 23.5 11.5s5.5 13.833 5.5 26.5v468c0 12.667 -1.83301 21.5 -5.5 26.5s-11.5 8.83301 -23.5 11.5l-48 9v79h281v-79l-48 -9c-12 -2.66699 -19.833 -6.5 -23.5 -11.5s-5.5 -13.833 -5.5 -26.5v-468
c0 -12.667 1.83301 -21.5 5.5 -26.5s11.5 -8.83301 23.5 -11.5zM134 918h109l118 -126l-59 -48l-114 98l-114 -98l-59 48z" />
    <glyph glyph-name="Idieresis" unicode="&#xcf;" horiz-adv-x="377" 
d="M329 79v-79h-281v79l48 9c12 2.66699 19.833 6.5 23.5 11.5s5.5 13.833 5.5 26.5v468c0 12.667 -1.83301 21.5 -5.5 26.5s-11.5 8.83301 -23.5 11.5l-48 9v79h281v-79l-48 -9c-12 -2.66699 -19.833 -6.5 -23.5 -11.5s-5.5 -13.833 -5.5 -26.5v-468
c0 -12.667 1.83301 -21.5 5.5 -26.5s11.5 -8.83301 23.5 -11.5zM138 871.5c8 -11 12 -28.001 12 -51.001s-5.83301 -39.333 -17.5 -49s-29.5 -14.5 -53.5 -14.5s-41.667 4.33301 -53 13s-17 24.834 -17 48.501s5.16699 41.167 15.5 52.5s29.833 17 58.5 17s47 -5.5 55 -16.5
zM353 871.499c8 -11 12 -28.001 12 -51.001s-5.83301 -39.333 -17.5 -49s-29.5 -14.5 -53.5 -14.5s-41.667 4.33301 -53 13s-17 24.834 -17 48.501s5.16699 41.167 15.5 52.5s29.833 17 58.5 17s47 -5.5 55 -16.5z" />
    <glyph glyph-name="Eth" unicode="&#xd0;" horiz-adv-x="727" 
d="M503.5 165c31.667 42 47.499 109.833 47.499 203.5s-15.5 158.667 -46.5 195s-81.5 54.5 -151.5 54.5h-101v-516h101c68.667 0 118.834 21 150.501 63zM47.999 720l315 0.000976562c114 0 196.667 -30 248 -90s77 -145.833 77 -257.5s-27 -201.667 -81 -270
s-135.333 -102.5 -244 -102.5h-315v80l48 9c12 2.66699 19.833 6.66699 23.5 12s5.5 14.666 5.5 27.999v469c0 13.333 -1.83301 23 -5.5 29s-11.5 9.66699 -23.5 11l-48 6v76zM47.999 304.001v108h371v-108h-371z" />
    <glyph glyph-name="Ntilde" unicode="&#xd1;" horiz-adv-x="802" 
d="M49 720l208 -0.00195312l307 -491v366c0 13.333 -1.66699 23 -5 29s-11 9.66699 -23 11l-47 6v79h278v-79l-47 -6c-12 -1.33301 -19.833 -5 -23.5 -11s-5.5 -15.667 -5.5 -29v-595h-132l-307 491v-365c0 -13.333 1.83301 -22.666 5.5 -27.999
s11.5 -8.66602 23.5 -9.99902l48 -9v-79h-281v79l48 9c12 2 19.833 5.5 23.5 10.5s5.5 14.167 5.5 27.5v469c0 13.333 -1.83301 23 -5.5 29s-11.5 9.66699 -23.5 11l-47 6v79zM404.5 777.498c-29.667 12.333 -53.5 18.5 -71.5 18.5s-40.667 -9 -68 -27l-24 60
c30.667 46 65.334 69 104.001 69c20 0 44.667 -5.83301 74 -17.5s52.666 -17.5 69.999 -17.5s37.333 8 60 24l24 -60c-28.667 -45.333 -61 -68 -97 -68c-18 0 -41.833 6.16699 -71.5 18.5z" />
    <glyph glyph-name="Ograve" unicode="&#xd2;" horiz-adv-x="741" 
d="M622 104c-27.333 -35.333 -64.5 -63.166 -111.5 -83.499s-101.5 -30.5 -163.5 -30.5c-106.667 0 -184.667 33 -234 99s-74 156.333 -74 271c0 100.667 27 186 81 256c26.667 35.333 63.5 63.166 110.5 83.499s101.5 30.5 163.5 30.5c106.667 0 184.667 -33 234 -99
s74 -152.833 74 -260.5s-26.667 -196.5 -80 -266.5zM511.5 557.5c-35.667 45.667 -84.667 68.5 -147 68.5s-106.166 -11.667 -131.499 -35c-18 -16.667 -32 -48.5 -42 -95.5s-15 -94.167 -15 -141.5c0 -82 17.833 -145.833 53.5 -191.5s85 -68.5 148 -68.5
s106.5 11.667 130.5 35c17.333 16.667 31.166 48.667 41.499 96s15.5 94.333 15.5 141c0 82 -17.833 145.833 -53.5 191.5zM207 859l63 86l171 -148c-19.333 -28 -40 -42 -62 -42c-9.33301 0 -19.333 3.33301 -30 10z" />
    <glyph glyph-name="Oacute" unicode="&#xd3;" horiz-adv-x="741" 
d="M622 104c-27.333 -35.333 -64.5 -63.166 -111.5 -83.499s-101.5 -30.5 -163.5 -30.5c-106.667 0 -184.667 33 -234 99s-74 156.333 -74 271c0 100.667 27 186 81 256c26.667 35.333 63.5 63.166 110.5 83.499s101.5 30.5 163.5 30.5c106.667 0 184.667 -33 234 -99
s74 -152.833 74 -260.5s-26.667 -196.5 -80 -266.5zM511.5 557.5c-35.667 45.667 -84.667 68.5 -147 68.5s-106.166 -11.667 -131.499 -35c-18 -16.667 -32 -48.5 -42 -95.5s-15 -94.167 -15 -141.5c0 -82 17.833 -145.833 53.5 -191.5s85 -68.5 148 -68.5
s106.5 11.667 130.5 35c17.333 16.667 31.166 48.667 41.499 96s15.5 94.333 15.5 141c0 82 -17.833 145.833 -53.5 191.5zM469 944l63 -86l-142 -94c-10.667 -6.66699 -20.667 -10 -30 -10c-22 0 -42.667 14 -62 42z" />
    <glyph glyph-name="Ocircumflex" unicode="&#xd4;" horiz-adv-x="741" 
d="M622 104c-27.333 -35.333 -64.5 -63.166 -111.5 -83.499s-101.5 -30.5 -163.5 -30.5c-106.667 0 -184.667 33 -234 99s-74 156.333 -74 271c0 100.667 27 186 81 256c26.667 35.333 63.5 63.166 110.5 83.499s101.5 30.5 163.5 30.5c106.667 0 184.667 -33 234 -99
s74 -152.833 74 -260.5s-26.667 -196.5 -80 -266.5zM511.5 557.5c-35.667 45.667 -84.667 68.5 -147 68.5s-106.166 -11.667 -131.499 -35c-18 -16.667 -32 -48.5 -42 -95.5s-15 -94.167 -15 -141.5c0 -82 17.833 -145.833 53.5 -191.5s85 -68.5 148 -68.5
s106.5 11.667 130.5 35c17.333 16.667 31.166 48.667 41.499 96s15.5 94.333 15.5 141c0 82 -17.833 145.833 -53.5 191.5zM317 918h109l118 -126l-59 -48l-114 98l-114 -98l-59 48z" />
    <glyph glyph-name="Otilde" unicode="&#xd5;" horiz-adv-x="741" 
d="M622 104c-27.333 -35.333 -64.5 -63.166 -111.5 -83.499s-101.5 -30.5 -163.5 -30.5c-106.667 0 -184.667 33 -234 99s-74 156.333 -74 271c0 100.667 27 186 81 256c26.667 35.333 63.5 63.166 110.5 83.499s101.5 30.5 163.5 30.5c106.667 0 184.667 -33 234 -99
s74 -152.833 74 -260.5s-26.667 -196.5 -80 -266.5zM511.5 557.5c-35.667 45.667 -84.667 68.5 -147 68.5s-106.166 -11.667 -131.499 -35c-18 -16.667 -32 -48.5 -42 -95.5s-15 -94.167 -15 -141.5c0 -82 17.833 -145.833 53.5 -191.5s85 -68.5 148 -68.5
s106.5 11.667 130.5 35c17.333 16.667 31.166 48.667 41.499 96s15.5 94.333 15.5 141c0 82 -17.833 145.833 -53.5 191.5zM357.5 778.5c-29.667 12.333 -53.667 18.5 -72 18.5s-40.833 -9 -67.5 -27l-24 60c30.667 46 65.334 69 104.001 69c20 0 44.667 -5.83301 74 -17.5
s52.666 -17.5 69.999 -17.5s37.333 8 60 24l24 -60c-28.667 -45.333 -61 -68 -97 -68c-18 0 -41.833 6.16699 -71.5 18.5z" />
    <glyph glyph-name="Odieresis" unicode="&#xd6;" horiz-adv-x="741" 
d="M622 104c-27.333 -35.333 -64.5 -63.166 -111.5 -83.499s-101.5 -30.5 -163.5 -30.5c-106.667 0 -184.667 33 -234 99s-74 156.333 -74 271c0 100.667 27 186 81 256c26.667 35.333 63.5 63.166 110.5 83.499s101.5 30.5 163.5 30.5c106.667 0 184.667 -33 234 -99
s74 -152.833 74 -260.5s-26.667 -196.5 -80 -266.5zM511.5 557.5c-35.667 45.667 -84.667 68.5 -147 68.5s-106.166 -11.667 -131.499 -35c-18 -16.667 -32 -48.5 -42 -95.5s-15 -94.167 -15 -141.5c0 -82 17.833 -145.833 53.5 -191.5s85 -68.5 148 -68.5
s106.5 11.667 130.5 35c17.333 16.667 31.166 48.667 41.499 96s15.5 94.333 15.5 141c0 82 -17.833 145.833 -53.5 191.5zM313 871.5c8 -11 12 -28.001 12 -51.001s-5.83301 -39.333 -17.5 -49s-29.5 -14.5 -53.5 -14.5s-41.667 4.33301 -53 13s-17 24.834 -17 48.501
s5.16699 41.167 15.5 52.5s29.833 17 58.5 17s47 -5.5 55 -16.5zM528 871.499c8 -11 12 -28.001 12 -51.001s-5.83301 -39.333 -17.5 -49s-29.5 -14.5 -53.5 -14.5s-41.667 4.33301 -53 13s-17 24.834 -17 48.501s5.16699 41.167 15.5 52.5s29.833 17 58.5 17
s47 -5.5 55 -16.5z" />
    <glyph glyph-name="multiply" unicode="&#xd7;" horiz-adv-x="496" 
d="M109 23l-70 80l135 133l-135 137l73 73l135 -138l137 135l73 -72l-137 -137l133 -135l-72 -73l-134 135z" />
    <glyph glyph-name="Oslash" unicode="&#xd8;" horiz-adv-x="717" 
d="M213 -61l-85 41l30 65c-79.333 58.667 -119 163.667 -119 315c0 100.667 27 186 81 256c26.667 35.333 63.5 63.166 110.5 83.499s101.5 30.5 163.5 30.5c24 0 49.333 -2.33301 76 -7l30 64l85 -41l-26 -56c95.333 -55.333 143 -165.333 143 -330
c0 -100.667 -26.667 -186 -80 -256c-27.333 -35.333 -64.5 -63.166 -111.5 -83.499s-101.5 -30.5 -163.5 -30.5c-36.667 0 -71.667 4.33301 -105 13zM565 366c0 89.333 -20.666 156.667 -61.999 202l-211 -456c26 -12 56.333 -18 91 -18c59.333 0 101 11.667 125 35
c17.333 16.667 31.166 48.667 41.499 96s15.5 94.333 15.5 141zM358.001 626.001c-58 0 -99.667 -11.667 -125 -35c-18 -16.667 -32 -48.5 -42 -95.5s-15 -94.167 -15 -141.5c0 -74.667 14.333 -133.667 43 -177l203 440c-20 6 -41.333 9 -64 9z" />
    <glyph glyph-name="Ugrave" unicode="&#xd9;" horiz-adv-x="725" 
d="M630 594l-0.000976562 -362.005c0 -34 -5.5 -65 -16.5 -93s-25.5 -51 -43.5 -69s-39.333 -33.333 -64 -46c-45.333 -22.667 -96.666 -34 -153.999 -34c-84 0 -147.833 20.833 -191.5 62.5s-65.5 101.5 -65.5 179.5v362c0 13.333 -1.83301 22.5 -5.5 27.5
s-11.5 8.5 -23.5 10.5l-48 9v79h281v-79l-48 -9c-12 -1.33301 -19.833 -4.66602 -23.5 -9.99902s-5.5 -14.666 -5.5 -27.999v-346c0 -55.333 15.167 -94.666 45.5 -117.999s67.833 -35 112.5 -35s77 8 97 24s30 61.667 30 137v338c0 13.333 -1.83301 22.5 -5.5 27.5
s-11.5 8.5 -23.5 10.5l-48 9v79h277v-79l-48 -9c-12 -1.33301 -19.833 -4.66602 -23.5 -9.99902s-5.5 -14.666 -5.5 -27.999zM198.999 858.995l63 86l171 -148c-19.333 -28 -40 -42 -62 -42c-9.33301 0 -19.333 3.33301 -30 10z" />
    <glyph glyph-name="Uacute" unicode="&#xda;" horiz-adv-x="725" 
d="M630 594l-0.000976562 -362.005c0 -34 -5.5 -65 -16.5 -93s-25.5 -51 -43.5 -69s-39.333 -33.333 -64 -46c-45.333 -22.667 -96.666 -34 -153.999 -34c-84 0 -147.833 20.833 -191.5 62.5s-65.5 101.5 -65.5 179.5v362c0 13.333 -1.83301 22.5 -5.5 27.5
s-11.5 8.5 -23.5 10.5l-48 9v79h281v-79l-48 -9c-12 -1.33301 -19.833 -4.66602 -23.5 -9.99902s-5.5 -14.666 -5.5 -27.999v-346c0 -55.333 15.167 -94.666 45.5 -117.999s67.833 -35 112.5 -35s77 8 97 24s30 61.667 30 137v338c0 13.333 -1.83301 22.5 -5.5 27.5
s-11.5 8.5 -23.5 10.5l-48 9v79h277v-79l-48 -9c-12 -1.33301 -19.833 -4.66602 -23.5 -9.99902s-5.5 -14.666 -5.5 -27.999zM460.999 943.995l63 -86l-142 -94c-10.667 -6.66699 -20.667 -10 -30 -10c-22 0 -42.667 14 -62 42z" />
    <glyph glyph-name="Ucircumflex" unicode="&#xdb;" horiz-adv-x="725" 
d="M630 594l-0.000976562 -362.005c0 -34 -5.5 -65 -16.5 -93s-25.5 -51 -43.5 -69s-39.333 -33.333 -64 -46c-45.333 -22.667 -96.666 -34 -153.999 -34c-84 0 -147.833 20.833 -191.5 62.5s-65.5 101.5 -65.5 179.5v362c0 13.333 -1.83301 22.5 -5.5 27.5
s-11.5 8.5 -23.5 10.5l-48 9v79h281v-79l-48 -9c-12 -1.33301 -19.833 -4.66602 -23.5 -9.99902s-5.5 -14.666 -5.5 -27.999v-346c0 -55.333 15.167 -94.666 45.5 -117.999s67.833 -35 112.5 -35s77 8 97 24s30 61.667 30 137v338c0 13.333 -1.83301 22.5 -5.5 27.5
s-11.5 8.5 -23.5 10.5l-48 9v79h277v-79l-48 -9c-12 -1.33301 -19.833 -4.66602 -23.5 -9.99902s-5.5 -14.666 -5.5 -27.999zM308.999 917.995h109l118 -126l-59 -48l-114 98l-114 -98l-59 48z" />
    <glyph glyph-name="Udieresis" unicode="&#xdc;" horiz-adv-x="725" 
d="M630 594l-0.000976562 -362.005c0 -34 -5.5 -65 -16.5 -93s-25.5 -51 -43.5 -69s-39.333 -33.333 -64 -46c-45.333 -22.667 -96.666 -34 -153.999 -34c-84 0 -147.833 20.833 -191.5 62.5s-65.5 101.5 -65.5 179.5v362c0 13.333 -1.83301 22.5 -5.5 27.5
s-11.5 8.5 -23.5 10.5l-48 9v79h281v-79l-48 -9c-12 -1.33301 -19.833 -4.66602 -23.5 -9.99902s-5.5 -14.666 -5.5 -27.999v-346c0 -55.333 15.167 -94.666 45.5 -117.999s67.833 -35 112.5 -35s77 8 97 24s30 61.667 30 137v338c0 13.333 -1.83301 22.5 -5.5 27.5
s-11.5 8.5 -23.5 10.5l-48 9v79h277v-79l-48 -9c-12 -1.33301 -19.833 -4.66602 -23.5 -9.99902s-5.5 -14.666 -5.5 -27.999zM312.999 871.495c8 -11 12 -28.001 12 -51.001s-5.83301 -39.333 -17.5 -49s-29.5 -14.5 -53.5 -14.5s-41.667 4.33301 -53 13
s-17 24.834 -17 48.501s5.16699 41.167 15.5 52.5s29.833 17 58.5 17s47 -5.5 55 -16.5zM527.999 871.494c8 -11 12 -28.001 12 -51.001s-5.83301 -39.333 -17.5 -49s-29.5 -14.5 -53.5 -14.5s-41.667 4.33301 -53 13s-17 24.834 -17 48.501s5.16699 41.167 15.5 52.5
s29.833 17 58.5 17s47 -5.5 55 -16.5z" />
    <glyph glyph-name="Yacute" unicode="&#xdd;" horiz-adv-x="700" 
d="M604 594l-192 -356.003v-112c0 -13.333 1.83301 -22.5 5.5 -27.5s11.5 -8.5 23.5 -10.5l52 -9v-79h-289v79l52 9c12 2 19.833 5.5 23.5 10.5s5.5 14.167 5.5 27.5v122l-189 346c-8 14.667 -15.333 25 -22 31s-16 9.66699 -28 11l-44 5v79h297v-78l-35 -6
c-22 -3.33301 -33 -9.66602 -33 -18.999c0 -3.33301 3 -11 9 -23l121 -234l116 234c4.66699 8.66699 7 15.834 7 21.501s-2.5 9.83398 -7.5 12.501s-14.167 5 -27.5 7l-35 6v79h284v-79l-44 -5c-14 -2.66699 -23.667 -6.5 -29 -11.5s-12.333 -15.167 -21 -30.5zM449 943.997
l63 -86l-142 -94c-10.667 -6.66699 -20.667 -10 -30 -10c-22 0 -42.667 14 -62 42z" />
    <glyph glyph-name="Thorn" unicode="&#xde;" horiz-adv-x="571" 
d="M329 79v-79h-281v79l50 9c12 1.33301 19.833 4.66602 23.5 9.99902s5.5 14.666 5.5 27.999v468c0 13.333 -1.83301 22.5 -5.5 27.5s-11.5 8.5 -23.5 10.5l-50 9v79h281v-79l-48 -9c-12 -1.33301 -19.833 -4.66602 -23.5 -9.99902s-5.5 -14.666 -5.5 -27.999v-3h72
c76 0 134.167 -13 174.5 -39s60.5 -73.167 60.5 -141.5s-25.833 -123.833 -77.5 -166.5s-111.167 -64 -178.5 -64h-51v-54c0 -13.333 1.83301 -22.5 5.5 -27.5s11.5 -8.5 23.5 -10.5zM252 273h48c46 0 77.333 6.33301 94 19c21.333 15.333 32 54.333 32 117
c0 60.667 -37 91 -111 91h-63v-227z" />
    <glyph glyph-name="germandbls" unicode="&#xdf;" horiz-adv-x="634" 
d="M338 695c-38.667 0 -66.4971 -6.66699 -83.4971 -20s-25.5 -36.333 -25.5 -69v-606h-195v74l52 6c10 0.666992 16.333 3.5 19 8.5s4 14.833 4 29.5v285h-79l16 78l63 9v60c0 79.333 22.5 139.166 67.5 179.499s108.167 60.5 189.5 60.5c57.333 0 103 -13.5 137 -40.5
s51 -68.167 51 -123.5c0 -34 -5.83301 -62.833 -17.5 -86.5s-25.667 -41.5 -42 -53.5s-32.5 -22.667 -48.5 -32c-40 -22.667 -60 -47 -60 -73c0 -17.333 2.33301 -29.166 7 -35.499l10.5 -14c2.33301 -3 7.33301 -6.66699 15 -11s13.167 -7.16602 16.5 -8.49902
s10.666 -4.5 21.999 -9.5l24 -10.5c49.333 -22.667 84.166 -43.667 104.499 -63s30.5 -47.333 30.5 -84c0 -47.333 -17.833 -85 -53.5 -113s-80 -42 -133 -42s-104.833 11.667 -155.5 35l6 124h66l8 -58c25.333 -13.333 48.666 -20 69.999 -20c48 0 72 19.667 72 59
c0 17.333 -7.16699 31.5 -21.5 42.5s-41.5 24.333 -81.5 40s-70.333 35.167 -91 58.5s-31 51.666 -31 84.999s5.5 58.333 16.5 75s24.167 29.334 39.5 38.001l46.5 27c15.667 9.33301 29 24.166 40 44.499s16.5 46.5 16.5 78.5c0 50.667 -30.667 76 -92 76z" />
    <glyph glyph-name="agrave" unicode="&#xe0;" horiz-adv-x="544" 
d="M449 351l-0.00195312 -242.001c0 -17.333 7.33301 -26.666 22 -27.999l51 -7v-74h-179l-8 59c-46 -46 -94.667 -69 -146 -69s-89 12 -113 36s-36 56.5 -36 97.5s12.833 74.5 38.5 100.5s62.834 42.333 111.501 49l139 18v58c0 42 -29 63 -87 63
c-26 0 -51 -5.33301 -75 -16l-12 -66h-79l-9 123c46.667 16.667 81.334 27.834 104.001 33.501s48.334 8.5 77.001 8.5c57.333 0 105.166 -11.833 143.499 -35.5s57.5 -59.834 57.5 -108.501zM328.998 211.999l-110 -18c-37.333 -6.66699 -56 -28 -56 -64
c0 -33.333 18.667 -50 56 -50c18.667 0 39.667 6.5 63 19.5s39 24.5 47 34.5v78zM95.998 679.999l74 77l149 -170c-22 -22 -40.833 -33 -56.5 -33s-28.5 4.66699 -38.5 14z" />
    <glyph glyph-name="aacute" unicode="&#xe1;" horiz-adv-x="544" 
d="M449 351l-0.00195312 -242.001c0 -17.333 7.33301 -26.666 22 -27.999l51 -7v-74h-179l-8 59c-46 -46 -94.667 -69 -146 -69s-89 12 -113 36s-36 56.5 -36 97.5s12.833 74.5 38.5 100.5s62.834 42.333 111.501 49l139 18v58c0 42 -29 63 -87 63
c-26 0 -51 -5.33301 -75 -16l-12 -66h-79l-9 123c46.667 16.667 81.334 27.834 104.001 33.501s48.334 8.5 77.001 8.5c57.333 0 105.166 -11.833 143.499 -35.5s57.5 -59.834 57.5 -108.501zM328.998 211.999l-110 -18c-37.333 -6.66699 -56 -28 -56 -64
c0 -33.333 18.667 -50 56 -50c18.667 0 39.667 6.5 63 19.5s39 24.5 47 34.5v78zM350.998 756.999l74 -77l-128 -112c-10 -9.33301 -22.833 -14 -38.5 -14s-34.5 11 -56.5 33z" />
    <glyph glyph-name="acircumflex" unicode="&#xe2;" horiz-adv-x="544" 
d="M449 351l-0.00195312 -242.001c0 -17.333 7.33301 -26.666 22 -27.999l51 -7v-74h-179l-8 59c-46 -46 -94.667 -69 -146 -69s-89 12 -113 36s-36 56.5 -36 97.5s12.833 74.5 38.5 100.5s62.834 42.333 111.501 49l139 18v58c0 42 -29 63 -87 63
c-26 0 -51 -5.33301 -75 -16l-12 -66h-79l-9 123c46.667 16.667 81.334 27.834 104.001 33.501s48.334 8.5 77.001 8.5c57.333 0 105.166 -11.833 143.499 -35.5s57.5 -59.834 57.5 -108.501zM328.998 211.999l-110 -18c-37.333 -6.66699 -56 -28 -56 -64
c0 -33.333 18.667 -50 56 -50c18.667 0 39.667 6.5 63 19.5s39 24.5 47 34.5v78zM206.998 742.999h109l103 -146l-59 -48l-99 118l-99 -118l-59 48z" />
    <glyph glyph-name="atilde" unicode="&#xe3;" horiz-adv-x="544" 
d="M449 351l-0.00195312 -242.001c0 -17.333 7.33301 -26.666 22 -27.999l51 -7v-74h-179l-8 59c-46 -46 -94.667 -69 -146 -69s-89 12 -113 36s-36 56.5 -36 97.5s12.833 74.5 38.5 100.5s62.834 42.333 111.501 49l139 18v58c0 42 -29 63 -87 63
c-26 0 -51 -5.33301 -75 -16l-12 -66h-79l-9 123c46.667 16.667 81.334 27.834 104.001 33.501s48.334 8.5 77.001 8.5c57.333 0 105.166 -11.833 143.499 -35.5s57.5 -59.834 57.5 -108.501zM328.998 211.999l-110 -18c-37.333 -6.66699 -56 -28 -56 -64
c0 -33.333 18.667 -50 56 -50c18.667 0 39.667 6.5 63 19.5s39 24.5 47 34.5v78zM240.498 578.499c-29.667 12.333 -53.5 18.5 -71.5 18.5s-40.667 -9 -68 -27l-24 60c30.667 46 65.334 69 104.001 69c20 0 44.667 -5.83301 74 -17.5s52.666 -17.5 69.999 -17.5
s37.333 8 60 24l24 -60c-28.667 -45.333 -61 -68 -97 -68c-18 0 -41.833 6.16699 -71.5 18.5z" />
    <glyph glyph-name="adieresis" unicode="&#xe4;" horiz-adv-x="544" 
d="M449 351l-0.00195312 -242.001c0 -17.333 7.33301 -26.666 22 -27.999l51 -7v-74h-179l-8 59c-46 -46 -94.667 -69 -146 -69s-89 12 -113 36s-36 56.5 -36 97.5s12.833 74.5 38.5 100.5s62.834 42.333 111.501 49l139 18v58c0 42 -29 63 -87 63
c-26 0 -51 -5.33301 -75 -16l-12 -66h-79l-9 123c46.667 16.667 81.334 27.834 104.001 33.501s48.334 8.5 77.001 8.5c57.333 0 105.166 -11.833 143.499 -35.5s57.5 -59.834 57.5 -108.501zM328.998 211.999l-110 -18c-37.333 -6.66699 -56 -28 -56 -64
c0 -33.333 18.667 -50 56 -50c18.667 0 39.667 6.5 63 19.5s39 24.5 47 34.5v78zM210.998 671.499c8 -11 12 -28.001 12 -51.001s-5.83301 -39.333 -17.5 -49s-29.5 -14.5 -53.5 -14.5s-41.667 4.33301 -53 13s-17 24.834 -17 48.501s5.16699 41.167 15.5 52.5
s29.833 17 58.5 17s47 -5.5 55 -16.5zM425.998 671.498c8 -11 12 -28.001 12 -51.001s-5.83301 -39.333 -17.5 -49s-29.5 -14.5 -53.5 -14.5s-41.667 4.33301 -53 13s-17 24.834 -17 48.501s5.16699 41.167 15.5 52.5s29.833 17 58.5 17s47 -5.5 55 -16.5z" />
    <glyph glyph-name="aring" unicode="&#xe5;" horiz-adv-x="544" 
d="M449 351l-0.00195312 -242.001c0 -17.333 7.33301 -26.666 22 -27.999l51 -7v-74h-179l-8 59c-46 -46 -94.667 -69 -146 -69s-89 12 -113 36s-36 56.5 -36 97.5s12.833 74.5 38.5 100.5s62.834 42.333 111.501 49l139 18v58c0 42 -29 63 -87 63
c-26 0 -51 -5.33301 -75 -16l-12 -66h-79l-9 123c46.667 16.667 81.334 27.834 104.001 33.501s48.334 8.5 77.001 8.5c57.333 0 105.166 -11.833 143.499 -35.5s57.5 -59.834 57.5 -108.501zM328.998 211.999l-110 -18c-37.333 -6.66699 -56 -28 -56 -64
c0 -33.333 18.667 -50 56 -50c18.667 0 39.667 6.5 63 19.5s39 24.5 47 34.5v78zM370.998 659.999c0 -26.667 -10.5 -50.5 -31.5 -71.5s-48.333 -31.5 -82 -31.5s-60 10 -79 30s-28.5 43.333 -28.5 70s10.5 50.5 31.5 71.5s48.333 31.5 82 31.5s60 -10 79 -30
s28.5 -43.333 28.5 -70zM300.998 661.999c0 10.667 -4 19.167 -12 25.5s-17.667 9.5 -29 9.5c-26.667 0 -40 -14.333 -40 -43c0 -10.667 4 -19.167 12 -25.5s17.667 -9.5 29 -9.5c26.667 0 40 14.333 40 43z" />
    <glyph glyph-name="ae" unicode="&#xe6;" horiz-adv-x="796" 
d="M183 -10c-47.333 0 -83.002 12 -107.002 36s-36 56.5 -36 97.5s12.833 74.5 38.5 100.5s62.834 42.333 111.501 49l139 18v58c0 42 -29 63 -87 63c-26 0 -51 -5.33301 -75 -16l-12 -66h-79l-9 123c46.667 16.667 81.334 27.834 104.001 33.501s48.334 8.5 77.001 8.5
c56 0 102.667 -11.833 140 -35.5s56 -59.834 56 -108.501v-250l-78 -13c-18 -25.333 -45.333 -48 -82 -68s-70.334 -30 -101.001 -30zM328.998 212l-110 -18c-37.333 -6.66699 -56 -28 -56 -64c0 -33.333 18.667 -50 56 -50c18.667 0 39.667 6.5 63 19.5s39 24.5 47 34.5v78
zM758.998 234l-307.999 -22c5.33301 -88.667 46 -133 122 -133c42 0 97 9.66699 165 29l19 -72c-78.667 -30.667 -149.334 -46 -212.001 -46c-93.333 0 -157.666 35 -192.999 105l24 309c42 60.667 102.667 91 182 91s132.666 -21.5 159.999 -64.5s41 -108.5 41 -196.5z
M448.999 291l192.999 16c-1.33301 66 -29.666 99 -84.999 99c-40 0 -66.5 -7.5 -79.5 -22.5s-22.5 -45.833 -28.5 -92.5z" />
    <glyph glyph-name="ccedilla" unicode="&#xe7;" horiz-adv-x="489" 
d="M434 109l15.998 -74.002c-59.333 -23.333 -101.166 -36.666 -125.499 -39.999s-44.5 -5 -60.5 -5c-75.333 0 -132.5 20.167 -171.5 60.5s-58.5 99.833 -58.5 178.5s21.833 142.667 65.5 192s102.834 74 177.501 74c32 0 63.333 -4.16699 94 -12.5
s54.667 -18.166 72 -29.499l-9 -133h-79l-17 73c-17.333 8.66699 -43.333 13 -78 13s-57.667 -8 -69 -24c-19.333 -28 -29 -77.667 -29 -149c0 -46 9.83301 -83.167 29.5 -111.5s47 -42.5 82 -42.5s88.5 10 160.5 30zM217.998 12.998l70.002 -11.999v-58l27 -9
c21.333 -7.33301 35.666 -16 42.999 -26s11 -24 11 -42c0 -32 -11.833 -56.833 -35.5 -74.5s-50.834 -26.5 -81.501 -26.5s-62 7 -94 21l17 49c23.333 -9.33301 47.333 -14 72 -14c22.667 0 34 12.667 34 38c0 15.333 -10 25.666 -30 30.999l-57 13z" />
    <glyph glyph-name="egrave" unicode="&#xe8;" horiz-adv-x="507" 
d="M470 234l-307.998 -22.001c5.33301 -88.667 46 -133 122 -133c42.667 0 97.667 9.66699 165 29l19 -72c-78.667 -30.667 -152.334 -46 -221.001 -46s-121.334 22 -158.001 66s-55 104.333 -55 181s21 138.834 63 186.501s101 71.5 177 71.5s127.667 -21.5 155 -64.5
s41 -108.5 41 -196.5zM160.002 290.999l192.999 16c-1.33301 66 -29.666 99 -84.999 99c-40 0 -66.5 -7.5 -79.5 -22.5s-22.5 -45.833 -28.5 -92.5zM88.001 679.999l74 77l149 -170c-22 -22 -40.833 -33 -56.5 -33s-28.5 4.66699 -38.5 14z" />
    <glyph glyph-name="eacute" unicode="&#xe9;" horiz-adv-x="507" 
d="M470 234l-307.998 -22.001c5.33301 -88.667 46 -133 122 -133c42.667 0 97.667 9.66699 165 29l19 -72c-78.667 -30.667 -152.334 -46 -221.001 -46s-121.334 22 -158.001 66s-55 104.333 -55 181s21 138.834 63 186.501s101 71.5 177 71.5s127.667 -21.5 155 -64.5
s41 -108.5 41 -196.5zM160.002 290.999l192.999 16c-1.33301 66 -29.666 99 -84.999 99c-40 0 -66.5 -7.5 -79.5 -22.5s-22.5 -45.833 -28.5 -92.5zM349.001 756.999l74 -77l-128 -112c-10 -9.33301 -22.833 -14 -38.5 -14s-34.5 11 -56.5 33z" />
    <glyph glyph-name="ecircumflex" unicode="&#xea;" horiz-adv-x="507" 
d="M470 234l-307.998 -22.001c5.33301 -88.667 46 -133 122 -133c42.667 0 97.667 9.66699 165 29l19 -72c-78.667 -30.667 -152.334 -46 -221.001 -46s-121.334 22 -158.001 66s-55 104.333 -55 181s21 138.834 63 186.501s101 71.5 177 71.5s127.667 -21.5 155 -64.5
s41 -108.5 41 -196.5zM160.002 290.999l192.999 16c-1.33301 66 -29.666 99 -84.999 99c-40 0 -66.5 -7.5 -79.5 -22.5s-22.5 -45.833 -28.5 -92.5zM203.001 747.999h109l103 -146l-59 -48l-99 118l-99 -118l-59 48z" />
    <glyph glyph-name="edieresis" unicode="&#xeb;" horiz-adv-x="507" 
d="M470 234l-307.998 -22.001c5.33301 -88.667 46 -133 122 -133c42.667 0 97.667 9.66699 165 29l19 -72c-78.667 -30.667 -152.334 -46 -221.001 -46s-121.334 22 -158.001 66s-55 104.333 -55 181s21 138.834 63 186.501s101 71.5 177 71.5s127.667 -21.5 155 -64.5
s41 -108.5 41 -196.5zM160.002 290.999l192.999 16c-1.33301 66 -29.666 99 -84.999 99c-40 0 -66.5 -7.5 -79.5 -22.5s-22.5 -45.833 -28.5 -92.5zM203.001 671.499c8 -11 12 -28.001 12 -51.001s-5.83301 -39.333 -17.5 -49s-29.5 -14.5 -53.5 -14.5
s-41.667 4.33301 -53 13s-17 24.834 -17 48.501s5.16699 41.167 15.5 52.5s29.833 17 58.5 17s47 -5.5 55 -16.5zM418.001 671.498c8 -11 12 -28.001 12 -51.001s-5.83301 -39.333 -17.5 -49s-29.5 -14.5 -53.5 -14.5s-41.667 4.33301 -53 13s-17 24.834 -17 48.501
s5.16699 41.167 15.5 52.5s29.833 17 58.5 17s47 -5.5 55 -16.5z" />
    <glyph glyph-name="igrave" unicode="&#xec;" horiz-adv-x="321" 
d="M223 109c0 -17.333 7.33301 -26.665 22 -27.998l51 -7v-74h-266v74l51 7c14.667 1.33301 22 10.666 22 27.999v268c0 17.333 -7.33301 26.666 -22 27.999l-51 6v74h193v-376zM-14 680.001l74 77l149 -170c-22 -22 -40.833 -33 -56.5 -33s-28.5 4.66699 -38.5 14z" />
    <glyph glyph-name="iacute" unicode="&#xed;" horiz-adv-x="321" 
d="M223 109c0 -17.333 7.33301 -26.665 22 -27.998l51 -7v-74h-266v74l51 7c14.667 1.33301 22 10.666 22 27.999v268c0 17.333 -7.33301 26.666 -22 27.999l-51 6v74h193v-376zM217 757.001l74 -77l-128 -112c-10 -9.33301 -22.833 -14 -38.5 -14s-34.5 11 -56.5 33z" />
    <glyph glyph-name="icircumflex" unicode="&#xee;" horiz-adv-x="306" 
d="M219 485v-375.999c0 -17.333 7.33301 -26.666 22 -27.999l51 -7v-74h-266v74l51 7c14.667 1.33301 22 10.666 22 27.999v268c0 17.333 -7.33301 26.666 -22 27.999l-51 6v74h193zM80 743.001h109l103 -146l-59 -48l-99 118l-99 -118l-59 48z" />
    <glyph glyph-name="idieresis" unicode="&#xef;" horiz-adv-x="321" 
d="M223 109c0 -17.333 7.33301 -26.665 22 -27.998l51 -7v-74h-266v74l51 7c14.667 1.33301 22 10.666 22 27.999v268c0 17.333 -7.33301 26.666 -22 27.999l-51 6v74h193v-376zM90 671.501c8 -11 12 -28.001 12 -51.001s-5.83301 -39.333 -17.5 -49
s-29.5 -14.5 -53.5 -14.5s-41.667 4.33301 -53 13s-17 24.834 -17 48.501s5.16699 41.167 15.5 52.5s29.833 17 58.5 17s47 -5.5 55 -16.5zM305 671.5c8 -11 12 -28.001 12 -51.001s-5.83301 -39.333 -17.5 -49s-29.5 -14.5 -53.5 -14.5s-41.667 4.33301 -53 13
s-17 24.834 -17 48.501s5.16699 41.167 15.5 52.5s29.833 17 58.5 17s47 -5.5 55 -16.5z" />
    <glyph glyph-name="eth" unicode="&#xf0;" horiz-adv-x="517" 
d="M239 404c-27.333 0 -50.666 -9.00098 -69.999 -27.001c-10.667 -9.33301 -18.834 -27.833 -24.501 -55.5s-8.5 -54.5 -8.5 -80.5c0 -50.667 9.16699 -90 27.5 -118s45 -42 80 -42s59.5 8.66699 73.5 26c22.667 25.333 34 69.833 34 133.5s-7 106.834 -21 129.501
s-44.333 34 -91 34zM397 723.999l-258 -161l-43 69l258 159zM483 285.999c0 -88 -21.499 -159.334 -64.499 -214.001s-108.833 -82 -197.5 -82c-72.667 0 -126.167 22.833 -160.5 68.5s-51.5 107.834 -51.5 186.501c0 60 21.667 115.667 65 167
c20 24.667 46.167 44.667 78.5 60s67.833 23 106.5 23c17.333 0 34.166 -4 50.499 -12s26.833 -17 31.5 -27c-28 108.667 -106 198.667 -234 270l46 71c78 -36.667 142.333 -83.167 193 -139.5s86.167 -114.833 106.5 -175.5s30.5 -126 30.5 -196z" />
    <glyph glyph-name="ntilde" unicode="&#xf1;" horiz-adv-x="628" 
d="M605 0h-192.999v318c0 26 -7.16699 45.833 -21.5 59.5s-34.166 20.5 -59.499 20.5c-40.667 0 -76.667 -15.667 -108 -47v-242c0 -17.333 7.33301 -26.666 22 -27.999l51 -7v-74h-266v74l51 7c14.667 1.33301 22 10.666 22 27.999v267
c0 17.333 -7.33301 26.666 -22 27.999l-51 7v74h169l8 -67c19.333 21.333 42.666 39.5 69.999 54.5s55.666 22.5 84.999 22.5c58.667 0 101.667 -14.333 129 -43s41 -64 41 -106v-237c0 -17.333 7.33301 -26.666 22 -27.999l51 -7v-74zM308.501 588.5
c-29.667 12.333 -53.5 18.5 -71.5 18.5s-40.667 -9 -68 -27l-24 60c30.667 46 65.334 69 104.001 69c20 0 44.667 -5.83301 74 -17.5s52.666 -17.5 69.999 -17.5s37.333 8 60 24l24 -60c-28.667 -45.333 -61 -68 -97 -68c-18 0 -41.833 6.16699 -71.5 18.5z" />
    <glyph glyph-name="ograve" unicode="&#xf2;" horiz-adv-x="563" 
d="M529 242c0 -62.667 -20.002 -119.333 -60.002 -170c-20 -24.667 -47.667 -44.5 -83 -59.5s-75.666 -22.5 -120.999 -22.5c-79.333 0 -137.666 22.667 -174.999 68s-56 106.666 -56 183.999c0 62.667 20 119.334 60 170.001c20 25.333 47.5 45.5 82.5 60.5
s75.167 22.5 120.5 22.5c80 0 138.667 -22.667 176 -68s56 -107 56 -185zM367.498 363.501c-22.333 28.333 -52.5 42.501 -90.5 42.501s-65 -8 -81 -24c-11.333 -10.667 -19.833 -30.167 -25.5 -58.5s-8.5 -56.833 -8.5 -85.5c0 -50 11 -89 33 -117s52 -42 90 -42
s65 8 81 24c11.333 10.667 20 30.167 26 58.5s9 56.833 9 85.5c0 49.333 -11.167 88.166 -33.5 116.499zM117.998 680.002l74 77l149 -170c-22 -22 -40.833 -33 -56.5 -33s-28.5 4.66699 -38.5 14z" />
    <glyph glyph-name="oacute" unicode="&#xf3;" horiz-adv-x="563" 
d="M529 242c0 -62.667 -20.002 -119.333 -60.002 -170c-20 -24.667 -47.667 -44.5 -83 -59.5s-75.666 -22.5 -120.999 -22.5c-79.333 0 -137.666 22.667 -174.999 68s-56 106.666 -56 183.999c0 62.667 20 119.334 60 170.001c20 25.333 47.5 45.5 82.5 60.5
s75.167 22.5 120.5 22.5c80 0 138.667 -22.667 176 -68s56 -107 56 -185zM367.498 363.501c-22.333 28.333 -52.5 42.501 -90.5 42.501s-65 -8 -81 -24c-11.333 -10.667 -19.833 -30.167 -25.5 -58.5s-8.5 -56.833 -8.5 -85.5c0 -50 11 -89 33 -117s52 -42 90 -42
s65 8 81 24c11.333 10.667 20 30.167 26 58.5s9 56.833 9 85.5c0 49.333 -11.167 88.166 -33.5 116.499zM378.998 757.002l74 -77l-128 -112c-10 -9.33301 -22.833 -14 -38.5 -14s-34.5 11 -56.5 33z" />
    <glyph glyph-name="ocircumflex" unicode="&#xf4;" horiz-adv-x="563" 
d="M529 242c0 -62.667 -20.002 -119.333 -60.002 -170c-20 -24.667 -47.667 -44.5 -83 -59.5s-75.666 -22.5 -120.999 -22.5c-79.333 0 -137.666 22.667 -174.999 68s-56 106.666 -56 183.999c0 62.667 20 119.334 60 170.001c20 25.333 47.5 45.5 82.5 60.5
s75.167 22.5 120.5 22.5c80 0 138.667 -22.667 176 -68s56 -107 56 -185zM367.498 363.501c-22.333 28.333 -52.5 42.501 -90.5 42.501s-65 -8 -81 -24c-11.333 -10.667 -19.833 -30.167 -25.5 -58.5s-8.5 -56.833 -8.5 -85.5c0 -50 11 -89 33 -117s52 -42 90 -42
s65 8 81 24c11.333 10.667 20 30.167 26 58.5s9 56.833 9 85.5c0 49.333 -11.167 88.166 -33.5 116.499zM228.998 719.002h109l103 -146l-59 -48l-99 118l-99 -118l-59 48z" />
    <glyph glyph-name="otilde" unicode="&#xf5;" horiz-adv-x="563" 
d="M529 242c0 -62.667 -20.002 -119.333 -60.002 -170c-20 -24.667 -47.667 -44.5 -83 -59.5s-75.666 -22.5 -120.999 -22.5c-79.333 0 -137.666 22.667 -174.999 68s-56 106.666 -56 183.999c0 62.667 20 119.334 60 170.001c20 25.333 47.5 45.5 82.5 60.5
s75.167 22.5 120.5 22.5c80 0 138.667 -22.667 176 -68s56 -107 56 -185zM367.498 363.501c-22.333 28.333 -52.5 42.501 -90.5 42.501s-65 -8 -81 -24c-11.333 -10.667 -19.833 -30.167 -25.5 -58.5s-8.5 -56.833 -8.5 -85.5c0 -50 11 -89 33 -117s52 -42 90 -42
s65 8 81 24c11.333 10.667 20 30.167 26 58.5s9 56.833 9 85.5c0 49.333 -11.167 88.166 -33.5 116.499zM277.498 578.502c-29.667 12.333 -53.667 18.5 -72 18.5s-40.833 -9 -67.5 -27l-24 60c30.667 46 65.334 69 104.001 69c20 0 44.667 -5.83301 74 -17.5
s52.666 -17.5 69.999 -17.5s37.333 8 60 24l24 -60c-28.667 -45.333 -61 -68 -97 -68c-18 0 -41.833 6.16699 -71.5 18.5z" />
    <glyph glyph-name="odieresis" unicode="&#xf6;" horiz-adv-x="563" 
d="M529 242c0 -62.667 -20.002 -119.333 -60.002 -170c-20 -24.667 -47.667 -44.5 -83 -59.5s-75.666 -22.5 -120.999 -22.5c-79.333 0 -137.666 22.667 -174.999 68s-56 106.666 -56 183.999c0 62.667 20 119.334 60 170.001c20 25.333 47.5 45.5 82.5 60.5
s75.167 22.5 120.5 22.5c80 0 138.667 -22.667 176 -68s56 -107 56 -185zM367.498 363.501c-22.333 28.333 -52.5 42.501 -90.5 42.501s-65 -8 -81 -24c-11.333 -10.667 -19.833 -30.167 -25.5 -58.5s-8.5 -56.833 -8.5 -85.5c0 -50 11 -89 33 -117s52 -42 90 -42
s65 8 81 24c11.333 10.667 20 30.167 26 58.5s9 56.833 9 85.5c0 49.333 -11.167 88.166 -33.5 116.499zM232.998 671.502c8 -11 12 -28.001 12 -51.001s-5.83301 -39.333 -17.5 -49s-29.5 -14.5 -53.5 -14.5s-41.667 4.33301 -53 13s-17 24.834 -17 48.501
s5.16699 41.167 15.5 52.5s29.833 17 58.5 17s47 -5.5 55 -16.5zM447.998 671.501c8 -11 12 -28.001 12 -51.001s-5.83301 -39.333 -17.5 -49s-29.5 -14.5 -53.5 -14.5s-41.667 4.33301 -53 13s-17 24.834 -17 48.501s5.16699 41.167 15.5 52.5s29.833 17 58.5 17
s47 -5.5 55 -16.5z" />
    <glyph glyph-name="divide" unicode="&#xf7;" horiz-adv-x="522" 
d="M333 412c0 -42.667 -25.001 -63.999 -75.001 -63.999c-24.667 0 -43 4.66699 -55 14s-18 26.166 -18 50.499s5.5 42.5 16.5 54.5s31.333 18 61 18s48.834 -5.83301 57.501 -17.5s13 -30.167 13 -55.5zM332.999 64.001c0 -42.667 -25.001 -63.999 -75.001 -63.999
c-24.667 0 -43 4.66699 -55 14s-18 26.166 -18 50.499s5.5 42.5 16.5 54.5s31.333 18 61 18s48.834 -5.83301 57.501 -17.5s13 -30.167 13 -55.5zM39.998 194.002v97h442v-97h-442z" />
    <glyph glyph-name="oslash" unicode="&#xf8;" horiz-adv-x="543" 
d="M163 -60l-80.001 38l28 59c-51.333 42 -77 110.333 -77 205c0 62.667 20 119.334 60 170.001c20 25.333 47.5 45.5 82.5 60.5s75.167 22.5 120.5 22.5c8 0 18.667 -0.666992 32 -2l24 50l80 -38l-17 -35c75.333 -36.667 113 -112.667 113 -228
c0 -62.667 -20 -119.334 -60 -170.001c-20 -24.667 -47.667 -44.5 -83 -59.5s-71.166 -22.5 -107.499 -22.5s-65.5 3 -87.5 9zM400.999 247c0 51.333 -11.667 90.667 -35 118l-132 -275c16.667 -7.33301 35 -11 55 -11c35.333 0 61 8 77 24c11.333 10.667 20 30.167 26 58.5
s9 56.833 9 85.5zM272.999 406.001c-35.333 0 -60.999 -8 -76.999 -24c-11.333 -10.667 -19.833 -30.167 -25.5 -58.5s-8.5 -57 -8.5 -86s3.33301 -53.5 10 -73.5l115 241c-2.66699 0.666992 -7.33398 1 -14.001 1z" />
    <glyph glyph-name="ugrave" unicode="&#xf9;" horiz-adv-x="606" 
d="M388 143v233.001c0 17.333 -7.33301 26.666 -22 27.999l-51 7v74h193v-376c0 -17.333 7.33301 -26.666 22 -27.999l51 -7v-74h-169l-8 67c-16.667 -19.333 -38.334 -37 -65.001 -53s-54.667 -24 -84 -24c-54.667 0 -96.667 12.833 -126 38.5s-44 62.167 -44 109.5v238
c0 17.333 -7.33301 26.666 -22 27.999l-51 7v74h193v-317c0 -56 24.333 -84 73 -84c24.667 0 48.334 7.66699 71.001 23s35.667 27.333 39 36zM101 680.001l74 77l149 -170c-22 -22 -40.833 -33 -56.5 -33s-28.5 4.66699 -38.5 14z" />
    <glyph glyph-name="uacute" unicode="&#xfa;" horiz-adv-x="607" 
d="M389 143v233.001c0 17.333 -7.33301 26.666 -22 27.999l-51 7v74h193v-376c0 -17.333 7.33301 -26.666 22 -27.999l51 -7v-74h-169l-8 67c-16.667 -19.333 -38.334 -37 -65.001 -53s-54.667 -24 -84 -24c-54.667 0 -96.667 12.833 -126 38.5s-44 62.167 -44 109.5v238
c0 17.333 -7.33301 26.666 -22 27.999l-51 7v74h193v-317c0 -56 24.333 -84 73 -84c24.667 0 48.334 7.66699 71.001 23s35.667 27.333 39 36zM363 757.001l74 -77l-128 -112c-10 -9.33301 -22.833 -14 -38.5 -14s-34.5 11 -56.5 33z" />
    <glyph glyph-name="ucircumflex" unicode="&#xfb;" horiz-adv-x="607" 
d="M389 143v233.001c0 17.333 -7.33301 26.666 -22 27.999l-51 7v74h193v-376c0 -17.333 7.33301 -26.666 22 -27.999l51 -7v-74h-169l-8 67c-16.667 -19.333 -38.334 -37 -65.001 -53s-54.667 -24 -84 -24c-54.667 0 -96.667 12.833 -126 38.5s-44 62.167 -44 109.5v238
c0 17.333 -7.33301 26.666 -22 27.999l-51 7v74h193v-317c0 -56 24.333 -84 73 -84c24.667 0 48.334 7.66699 71.001 23s35.667 27.333 39 36zM239 748.001h109l103 -146l-59 -48l-99 118l-99 -118l-59 48z" />
    <glyph glyph-name="udieresis" unicode="&#xfc;" horiz-adv-x="607" 
d="M389 143v233.001c0 17.333 -7.33301 26.666 -22 27.999l-51 7v74h193v-376c0 -17.333 7.33301 -26.666 22 -27.999l51 -7v-74h-169l-8 67c-16.667 -19.333 -38.334 -37 -65.001 -53s-54.667 -24 -84 -24c-54.667 0 -96.667 12.833 -126 38.5s-44 62.167 -44 109.5v238
c0 17.333 -7.33301 26.666 -22 27.999l-51 7v74h193v-317c0 -56 24.333 -84 73 -84c24.667 0 48.334 7.66699 71.001 23s35.667 27.333 39 36zM237 671.501c8 -11 12 -28.001 12 -51.001s-5.83301 -39.333 -17.5 -49s-29.5 -14.5 -53.5 -14.5s-41.667 4.33301 -53 13
s-17 24.834 -17 48.501s5.16699 41.167 15.5 52.5s29.833 17 58.5 17s47 -5.5 55 -16.5zM452 671.5c8 -11 12 -28.001 12 -51.001s-5.83301 -39.333 -17.5 -49s-29.5 -14.5 -53.5 -14.5s-41.667 4.33301 -53 13s-17 24.834 -17 48.501s5.16699 41.167 15.5 52.5
s29.833 17 58.5 17s47 -5.5 55 -16.5z" />
    <glyph glyph-name="yacute" unicode="&#xfd;" horiz-adv-x="564" 
d="M486 368l-187.002 -487.999c-33.333 -86.667 -88.666 -130 -165.999 -130c-41.333 0 -76.333 5.33301 -105 16l-13 88c31.333 -7.33301 61.666 -11 90.999 -11c47.333 0 81.666 29 102.999 87l17 49l-149 389c-5.33301 14.667 -10.666 24.5 -15.999 29.5
s-11.333 7.83301 -18 8.5l-41 6v73h247v-73l-44 -6c-9.33301 -2 -14 -6.33301 -14 -13c0 -4.66699 2.33301 -13 7 -25l92 -253l88 253c4.66699 12.667 7 22 7 28s-4.33301 9.33301 -13 10l-44 6v73h234v-73l-41 -6c-9.33301 -1.33301 -16.166 -4.83301 -20.499 -10.5
s-9.16602 -14.834 -14.499 -27.501zM361.998 757.001l74 -77l-128 -112c-10 -9.33301 -22.833 -14 -38.5 -14s-34.5 11 -56.5 33z" />
    <glyph glyph-name="thorn" unicode="&#xfe;" horiz-adv-x="557" 
d="M191 780l0.000976562 -348.999c42.667 42.667 85.667 64 129 64c63.333 0 113 -22 149 -66s54 -103.667 54 -179s-23.833 -137.5 -71.5 -186.5s-107.834 -73.5 -180.501 -73.5c-28 0 -54.667 5.66699 -80 17v-138c0 -17.333 7.33301 -26.666 22 -27.999l62 -7v-74h-277
v74l51 7c14.667 1.33301 22 10.666 22 27.999v803c0 17.333 -7.33301 26.666 -22 27.999l-51 6v74h193zM191.001 348.001l-0.00195312 -237c8.66699 -6.66699 22.334 -13.667 41.001 -21s36 -11 52 -11c35.333 0 61.333 8.66699 78 26c22 23.333 33 71.333 33 144
c0 104.667 -34.667 157 -104 157c-16.667 0 -35.667 -6.66699 -57 -20s-35.666 -26 -42.999 -38z" />
    <glyph glyph-name="ydieresis" unicode="&#xff;" horiz-adv-x="564" 
d="M486 368l-187.002 -487.999c-33.333 -86.667 -88.666 -130 -165.999 -130c-41.333 0 -76.333 5.33301 -105 16l-13 88c31.333 -7.33301 61.666 -11 90.999 -11c47.333 0 81.666 29 102.999 87l17 49l-149 389c-5.33301 14.667 -10.666 24.5 -15.999 29.5
s-11.333 7.83301 -18 8.5l-41 6v73h247v-73l-44 -6c-9.33301 -2 -14 -6.33301 -14 -13c0 -4.66699 2.33301 -13 7 -25l92 -253l88 253c4.66699 12.667 7 22 7 28s-4.33301 9.33301 -13 10l-44 6v73h234v-73l-41 -6c-9.33301 -1.33301 -16.166 -4.83301 -20.499 -10.5
s-9.16602 -14.834 -14.499 -27.501zM219.998 671.501c8 -11 12 -28.001 12 -51.001s-5.83301 -39.333 -17.5 -49s-29.5 -14.5 -53.5 -14.5s-41.667 4.33301 -53 13s-17 24.834 -17 48.501s5.16699 41.167 15.5 52.5s29.833 17 58.5 17s47 -5.5 55 -16.5zM434.998 671.5
c8 -11 12 -28.001 12 -51.001s-5.83301 -39.333 -17.5 -49s-29.5 -14.5 -53.5 -14.5s-41.667 4.33301 -53 13s-17 24.834 -17 48.501s5.16699 41.167 15.5 52.5s29.833 17 58.5 17s47 -5.5 55 -16.5z" />
    <glyph glyph-name="dotlessi" unicode="&#x131;" horiz-adv-x="306" 
d="M219 485v-375.999c0 -17.333 7.33301 -26.666 22 -27.999l51 -7v-74h-266v74l51 7c14.667 1.33301 22 10.666 22 27.999v268c0 17.333 -7.33301 26.666 -22 27.999l-51 6v74h193z" />
    <glyph glyph-name="OE" unicode="&#x152;" horiz-adv-x="1068" 
d="M1014 0l-453.999 0.000976562v73c-52 -55.333 -123 -83 -213 -83c-106.667 0 -184.667 33 -234 99s-74 156.333 -74 271c0 100.667 27 186 81 256c26.667 35.333 63.5 63.166 110.5 83.499s103.167 30.5 168.5 30.5s119 -20 161 -60v50h450l-7 -198h-84l-7 65
c-1.33301 12 -4.83301 19.833 -10.5 23.5s-14.834 5.5 -27.501 5.5h-187v-190h211v-104h-211v-218h188c12.667 0 22 1.83301 28 5.5s9.33301 11.5 10 23.5l7 70h87zM507.001 560.501c-35.333 43.667 -83.501 65.5 -144.501 65.5s-104.167 -11.667 -129.5 -35
c-18 -16.667 -32 -48.5 -42 -95.5s-15 -94.167 -15 -141.5c0 -82 17.833 -145.833 53.5 -191.5s84.334 -68.5 146.001 -68.5s104.167 11.667 127.5 35c16.667 16 30 45.833 40 89.5s15.667 88.5 17 134.5v25c0 78 -17.667 138.833 -53 182.5z" />
    <glyph glyph-name="oe" unicode="&#x153;" horiz-adv-x="874" 
d="M837 234l-307.998 -22c5.33301 -88.667 46 -133 122 -133c42 0 97 9.66699 165 29l19 -72c-78.667 -30.667 -149.334 -46 -212.001 -46c-80.667 0 -138.667 27.667 -174 83c-40.667 -55.333 -101.334 -83 -182.001 -83s-139.667 22.667 -177 68s-56 106.666 -56 183.999
c0 62.667 20 119.334 60 170.001c20 25.333 47.5 45.5 82.5 60.5s75.167 22.5 120.5 22.5c78 0 133 -27 165 -81c41.333 54 100.5 81 177.5 81s129.167 -21.5 156.5 -64.5s41 -108.5 41 -196.5zM367.502 363.5c-22.333 28.333 -52.5 42.501 -90.5 42.501s-65 -8 -81 -24
c-11.333 -10.667 -19.833 -30.167 -25.5 -58.5s-8.5 -56.833 -8.5 -85.5c0 -50 11 -89 33 -117s52 -42 90 -42s65 8 81 24c11.333 10.667 20 30.167 26 58.5s9 56.833 9 85.5c0 49.333 -11.167 88.166 -33.5 116.499zM527.002 291.001l192.999 16
c-1.33301 66 -29.666 99 -84.999 99c-40.667 0 -67.5 -7.5 -80.5 -22.5s-22.167 -45.833 -27.5 -92.5z" />
    <glyph glyph-name="circumflex" unicode="&#x2c6;" horiz-adv-x="353" 
d="M123 743h109l103 -146l-59 -48l-99 118l-99 -118l-59 48z" />
    <glyph glyph-name="ring" unicode="&#x2da;" horiz-adv-x="311" 
d="M266 660c0 -26.667 -10.5 -50.5 -31.5 -71.5s-48.333 -31.5 -82 -31.5s-60 10 -79 30s-28.5 43.333 -28.5 70s10.5 50.5 31.5 71.5s48.333 31.5 82 31.5s60 -10 79 -30s28.5 -43.333 28.5 -70zM196 662c0 10.667 -4 19.167 -12 25.5s-17.667 9.5 -29 9.5
c-26.667 0 -40 -14.333 -40 -43c0 -10.667 4 -19.167 12 -25.5s17.667 -9.5 29 -9.5c26.667 0 40 14.333 40 43z" />
    <glyph glyph-name="tilde" unicode="&#x2dc;" horiz-adv-x="404" 
d="M196.5 588.5c-29.667 12.333 -53.5 18.5 -71.5 18.5s-40.667 -9 -68 -27l-24 60c30.667 46 65.334 69 104.001 69c20 0 44.667 -5.83301 74 -17.5s52.666 -17.5 69.999 -17.5s37.333 8 60 24l24 -60c-28.667 -45.333 -61 -68 -97 -68c-18 0 -41.833 6.16699 -71.5 18.5z
" />
    <glyph glyph-name="endash" unicode="&#x2013;" horiz-adv-x="462" 
d="M0 210v92h462v-92h-462z" />
    <glyph glyph-name="emdash" unicode="&#x2014;" horiz-adv-x="910" 
d="M0 210v92h910v-92h-910z" />
    <glyph glyph-name="quoteleft" unicode="&#x2018;" horiz-adv-x="257" 
d="M43 596c0 41.333 13.667 80.332 41 116.999s57.666 64 90.999 82l47 -49c-19.333 -10.667 -37.666 -25.167 -54.999 -43.5s-26 -36.5 -26 -54.5c25.333 -2.66699 43.833 -10.167 55.5 -22.5s17.5 -31.166 17.5 -56.499c0 -46.667 -25 -70 -75 -70
c-64 0 -96 32.333 -96 97z" />
    <glyph glyph-name="quoteright" unicode="&#x2019;" horiz-adv-x="257" 
d="M214 698c0 -41.333 -13.667 -80.332 -41 -116.999s-57.666 -64 -90.999 -82l-47 49c19.333 10.667 37.666 25.167 54.999 43.5s26 36.5 26 54.5c-25.333 2.66699 -43.833 10.167 -55.5 22.5s-17.5 31.166 -17.5 56.499c0 46.667 25 70 75 70c64 0 96 -32.333 96 -97z" />
    <glyph glyph-name="quotesinglbase" unicode="&#x201a;" horiz-adv-x="243" 
d="M203 36c0 -39.333 -11.833 -75 -35.5 -107s-51.5 -56.667 -83.5 -74l-42 41c48 30 72 61 72 93c-26 2.66699 -44.5 9.66699 -55.5 21s-16.5 29 -16.5 53c0 46.667 24.667 70 74 70c58 0 87 -32.333 87 -97z" />
    <glyph glyph-name="quotedblleft" unicode="&#x201c;" horiz-adv-x="489" 
d="M275 596c0 41.333 13.667 80.332 41 116.999s57.666 64 90.999 82l47 -49c-19.333 -10.667 -37.666 -25.167 -54.999 -43.5s-26 -36.5 -26 -54.5c25.333 -2.66699 43.833 -10.167 55.5 -22.5s17.5 -31.166 17.5 -56.499c0 -46.667 -25 -70 -75 -70
c-64 0 -96 32.333 -96 97zM44 595.999c0 41.333 13.667 80.332 41 116.999s57.666 64 90.999 82l47 -49c-19.333 -10.667 -37.666 -25.167 -54.999 -43.5s-26 -36.5 -26 -54.5c25.333 -2.66699 43.833 -10.167 55.5 -22.5s17.5 -31.166 17.5 -56.499
c0 -46.667 -25 -70 -75 -70c-64 0 -96 32.333 -96 97z" />
    <glyph glyph-name="quotedblright" unicode="&#x201d;" horiz-adv-x="489" 
d="M214 698c0 -41.333 -13.667 -80.332 -41 -116.999s-57.666 -64 -90.999 -82l-47 49c19.333 10.667 37.666 25.167 54.999 43.5s26 36.5 26 54.5c-25.333 2.66699 -43.833 10.167 -55.5 22.5s-17.5 31.166 -17.5 56.499c0 46.667 25 70 75 70c64 0 96 -32.333 96 -97z
M445 698.001c0 -41.333 -13.667 -80.332 -41 -116.999s-57.666 -64 -90.999 -82l-47 49c19.333 10.667 37.666 25.167 54.999 43.5s26 36.5 26 54.5c-25.333 2.66699 -43.833 10.167 -55.5 22.5s-17.5 31.166 -17.5 56.499c0 46.667 25 70 75 70c64 0 96 -32.333 96 -97z
" />
    <glyph glyph-name="quotedblbase" unicode="&#x201e;" horiz-adv-x="462" 
d="M203 36c0 -39.333 -11.833 -75 -35.5 -107s-51.5 -56.667 -83.5 -74l-42 41c48 30 72 61 72 93c-26 2.66699 -44.5 9.66699 -55.5 21s-16.5 29 -16.5 53c0 46.667 24.667 70 74 70c58 0 87 -32.333 87 -97zM421 36c0 -39.333 -11.833 -75 -35.5 -107
s-51.5 -56.667 -83.5 -74l-42 41c48 30 72 61 72 93c-26 2.66699 -44.5 9.66699 -55.5 21s-16.5 29 -16.5 53c0 46.667 24.667 70 74 70c58 0 87 -32.333 87 -97z" />
    <glyph glyph-name="bullet" unicode="&#x2022;" horiz-adv-x="428" 
d="M328 433.5c16.667 -21.667 24.999 -56.332 24.999 -103.999s-11.167 -79.834 -33.5 -96.501s-59 -25 -110 -25s-86.167 9.5 -105.5 28.5s-29 50.833 -29 95.5s10.667 78.167 32 100.5s59.333 33.5 114 33.5s90.334 -10.833 107.001 -32.5z" />
    <glyph glyph-name="guilsinglleft" unicode="&#x2039;" horiz-adv-x="318" 
d="M209 39l-169.999 202.999l170 203c4 -4.66699 10.333 -11 19 -19c17.333 -14.667 26 -27.167 26 -37.5s-2.66699 -19.833 -8 -28.5l-74 -118l74 -118c5.33301 -7.33301 8 -15.5 8 -24.5s-1.83301 -16.333 -5.5 -22s-10.834 -13.167 -21.501 -22.5
s-16.667 -14.666 -18 -15.999z" />
    <glyph glyph-name="guilsinglright" unicode="&#x203a;" horiz-adv-x="318" 
d="M279 242l-170 -203.001c-3.33301 3.33301 -8.33301 7.83301 -15 13.5s-11.667 10.167 -15 13.5c-10 11.333 -15 22 -15 32s2.66699 18.667 8 26l74 118l-74 118c-5.33301 8.66699 -8 17 -8 25s2.16699 15 6.5 21s10.833 12.833 19.5 20.5s15 13.834 19 18.501z" />
    <glyph glyph-name="fraction" unicode="&#x2044;" horiz-adv-x="163" 
d="M243 730h98l-421 -730h-98z" />
    <glyph glyph-name="foursuperior" unicode="&#x2074;" horiz-adv-x="442" 
d="M412 451v-75h-66v-100h-93v100h-207l-27 54l218 300l62 -49l-156 -230h110v107h93v-107h66z" />
    <glyph glyph-name=".null" horiz-adv-x="0" 
 />
    <glyph glyph-name="nonmarkingreturn" horiz-adv-x="333" 
 />
  </font>
</defs>
</svg>
